<svg width="148" height="40" viewBox="0 0 148 40" fill="none" xmlns="http://www.w3.org/2000/svg">
<path d="M52.2474 27.0054C51.666 27.2921 50.3722 27.6035 48.6854 27.6035C43.887 27.6035 41.4141 24.6129 41.4141 20.6555C41.4141 15.9198 44.7959 13.2815 48.9966 13.2815C50.6261 13.2815 51.8625 13.6092 52.4112 13.896L51.7725 16.3868C51.1338 16.1164 50.2494 15.8706 49.1358 15.8706C46.6465 15.8706 44.7058 17.37 44.7058 20.4671C44.7058 23.2528 46.3517 25.0062 49.1522 25.0062C50.102 25.0062 51.1501 24.8014 51.7643 24.5556L52.2392 27.0054H52.2474Z" fill="#404042"/>
<path d="M53.6328 12.7651H56.7608V27.3985H53.6328V12.7651Z" fill="#404042"/>
<path d="M58.7734 27.3982V17.3204H61.9014V27.3982H58.7734ZM63.6783 12.9287L61.1645 16.0586H59.0027L60.7714 12.9287H63.6783Z" fill="#404042"/>
<path d="M63.91 20.5325C63.91 19.2789 63.8691 18.2056 63.8281 17.3207H66.5467L66.6941 18.6972H66.7514C67.1608 18.0581 68.1926 17.0913 69.863 17.0913C71.9265 17.0913 73.466 18.4514 73.466 21.4174V27.3904H70.338V21.8025C70.338 20.4997 69.8876 19.6149 68.7494 19.6149C67.8814 19.6149 67.3655 20.213 67.1608 20.7947C67.0789 20.9832 67.038 21.2863 67.038 21.5731V27.3822H63.91V20.5243V20.5325Z" fill="#404042"/>
<path d="M75.4688 27.3986V17.3208H78.5967V27.3986H75.4688Z" fill="#404042"/>
<path d="M88.1468 27.1528C87.59 27.3986 86.5418 27.6034 85.3463 27.6034C82.0955 27.6034 80.0156 25.6206 80.0156 22.4498C80.0156 19.5002 82.03 17.0913 85.7803 17.0913C86.6073 17.0913 87.5081 17.2388 88.1713 17.4846L87.68 19.8115C87.3115 19.6476 86.7547 19.5002 85.9277 19.5002C84.2818 19.5002 83.2091 20.6718 83.2337 22.3269C83.2337 24.1786 84.4701 25.1454 85.9932 25.1454C86.7384 25.1454 87.3115 25.0225 87.7865 24.834L88.155 27.1446L88.1468 27.1528Z" fill="#404042"/>
<path d="M95.1679 27.3989L94.9795 26.3911H94.9222C94.259 27.1941 93.2354 27.6283 92.0399 27.6283C90.001 27.6283 88.7891 26.1453 88.7891 24.5394C88.7891 21.9176 91.1392 20.664 94.7011 20.6885V20.5411C94.7011 20.0085 94.4145 19.2383 92.8669 19.2383C91.8352 19.2383 90.7461 19.5906 90.0828 20.0003L89.5096 17.9847C90.2139 17.5915 91.5895 17.0999 93.4237 17.0999C96.781 17.0999 97.8537 19.0826 97.8537 21.4505V24.9573C97.8537 25.9241 97.8946 26.85 97.9929 27.4071H95.1679V27.3989ZM94.7994 22.6386C93.1535 22.614 91.8761 23.0073 91.8761 24.2281C91.8761 25.031 92.4084 25.4243 93.1126 25.4243C93.8987 25.4243 94.5374 24.9081 94.7421 24.269C94.783 24.1052 94.8076 23.9167 94.8076 23.7365V22.6468L94.7994 22.6386Z" fill="#404042"/>
<path d="M103.555 13.511H112.038V16.0919H106.707V19.2627H111.686V21.8191H106.707V27.4069H103.555V13.5192V13.511Z" fill="#404042"/>
<path d="M118.699 27.3989L118.511 26.3911H118.453C117.79 27.1941 116.767 27.6283 115.571 27.6283C113.532 27.6283 112.32 26.1453 112.32 24.5394C112.32 21.9176 114.67 20.664 118.232 20.6885V20.5411C118.232 20.0085 117.946 19.2383 116.398 19.2383C115.366 19.2383 114.277 19.5906 113.614 20.0003L113.041 17.9847C113.737 17.5915 115.121 17.0999 116.955 17.0999C120.312 17.0999 121.385 19.0826 121.385 21.4505V24.9573C121.385 25.9241 121.426 26.85 121.532 27.4071H118.707L118.699 27.3989ZM118.331 22.6386C116.685 22.614 115.407 23.0073 115.407 24.2281C115.407 25.031 115.94 25.4243 116.644 25.4243C117.422 25.4243 118.06 24.9081 118.273 24.269C118.314 24.1052 118.331 23.9167 118.331 23.7365V22.6468V22.6386Z" fill="#404042"/>
<path d="M123.34 20.639C123.34 19.156 123.299 18.1892 123.258 17.3207H125.952L126.058 19.1724H126.14C126.656 17.7058 127.892 17.0913 128.859 17.0913C129.145 17.0913 129.293 17.0913 129.514 17.1323V20.0819C129.285 20.0409 129.022 20 128.67 20C127.516 20 126.73 20.6226 126.533 21.5895C126.492 21.7943 126.468 22.0401 126.468 22.2941V27.4068H123.34V20.6472V20.639Z" fill="#404042"/>
<path d="M132.902 23.3592C133.009 24.6538 134.286 25.2765 135.744 25.2765C136.817 25.2765 137.676 25.129 138.528 24.8668L138.937 26.9889C137.906 27.3986 136.653 27.6034 135.294 27.6034C131.879 27.6034 129.922 25.6206 129.922 22.4743C129.922 19.918 131.51 17.0913 135.007 17.0913C138.266 17.0913 139.494 19.6231 139.494 22.122C139.494 22.6546 139.429 23.1298 139.388 23.3592H132.902ZM136.587 21.2126C136.587 20.4506 136.26 19.1724 134.819 19.1724C133.5 19.1724 132.968 20.3687 132.878 21.2126H136.587Z" fill="#404042"/>
<path d="M140.815 24.662C141.388 25.0143 142.583 25.424 143.509 25.424C144.434 25.424 144.843 25.0962 144.843 24.58C144.843 24.0639 144.532 23.8181 143.361 23.4248C141.281 22.7283 140.479 21.5895 140.495 20.3932C140.495 18.517 142.1 17.0913 144.598 17.0913C145.769 17.0913 146.817 17.3617 147.439 17.6648L146.882 19.8279C146.432 19.5821 145.564 19.2544 144.696 19.2544C143.934 19.2544 143.5 19.5657 143.5 20.0819C143.5 20.5571 143.893 20.8029 145.13 21.2372C147.046 21.8926 147.849 22.8676 147.873 24.3506C147.873 26.2269 146.391 27.6034 143.509 27.6034C142.19 27.6034 141.019 27.3166 140.258 26.8988L140.815 24.6538V24.662Z" fill="#404042"/>
<path d="M78.6544 14.3628C78.6544 13.478 77.942 12.7651 77.0577 12.7651C76.1733 12.7651 75.4609 13.478 75.4609 14.3628C75.4609 15.2477 76.1733 15.9605 77.0577 15.9605C77.942 15.9605 78.6544 15.2477 78.6544 14.3628Z" fill="#404042"/>
<path d="M24.8438 0H12.9132V12.8472H0V24.5801H12.905V27.882C13.9122 24.4982 17.0402 22.032 20.7414 22.032C21.2654 22.032 21.7731 22.0811 22.2644 22.1794C22.1826 21.7288 22.1416 21.2618 22.1416 20.7866C22.1416 16.9521 24.7783 13.7403 28.3321 12.8554H24.8356V0.00819336L24.8438 0ZM32.5082 12.839C34.4243 13.3962 36.1521 14.7235 37.2002 16.272V12.839H32.5082ZM12.9787 32.798V37.3699H16.7618C14.9931 36.3785 13.6256 34.7481 12.9787 32.798Z" fill="#056939"/>
<path d="M30.359 13.3223C26.404 13.3223 23.1695 16.4112 22.9403 20.303V20.3112C22.8911 20.6635 22.9403 21.6877 22.973 22.2366C22.9484 22.7282 22.8584 22.8921 21.9495 22.8675C21.9167 22.8675 21.8839 22.8675 21.8594 22.8675C21.8103 22.8675 21.7611 22.8675 21.7038 22.8675C21.6137 22.8593 21.4909 22.8593 21.3435 22.8675C20.713 22.8675 20.2954 22.8921 20.2954 22.8921C16.4141 23.1461 13.3516 26.3661 13.3516 30.3153C13.3516 33.609 15.4888 36.403 18.4612 37.378H37.2046V27.5869V17.8532C36.0746 15.1904 33.4379 13.3223 30.359 13.3223Z" fill="#BE202E"/>
<path d="M46.2735 37.2966C45.9869 37.444 45.3482 37.6489 44.5294 37.6489C42.7033 37.6489 41.5078 36.4117 41.5078 34.5518C41.5078 32.6919 42.7852 31.3318 44.7668 31.3318C45.4219 31.3318 45.9951 31.4957 46.2981 31.6431L46.0442 32.4952C45.7822 32.3478 45.3646 32.2085 44.7668 32.2085C43.3748 32.2085 42.6214 33.2326 42.6214 34.5026C42.6214 35.9037 43.5222 36.7722 44.7259 36.7722C45.3482 36.7722 45.7658 36.6083 46.077 36.469L46.2653 37.2966H46.2735Z" fill="#404042"/>
<path d="M52.9831 34.4371C52.9831 36.6821 51.4273 37.6571 49.9616 37.6571C48.3239 37.6571 47.0547 36.4527 47.0547 34.5354C47.0547 32.5035 48.3812 31.3154 50.0599 31.3154C51.7385 31.3154 52.9749 32.5772 52.9749 34.4371H52.9831ZM48.1683 34.5026C48.1683 35.83 48.9298 36.8296 50.0107 36.8296C51.0916 36.8296 51.8531 35.8382 51.8531 34.4699C51.8531 33.4457 51.3373 32.143 50.0353 32.143C48.7333 32.143 48.1683 33.3474 48.1683 34.5026Z" fill="#404042"/>
<path d="M54.3616 33.1012C54.3616 32.4785 54.3453 31.9623 54.3125 31.4625H55.2787L55.3279 32.4375H55.3688C55.7045 31.864 56.2695 31.3232 57.2685 31.3232C58.0956 31.3232 58.7179 31.823 58.9881 32.5359H59.0127C59.201 32.1999 59.4385 31.9377 59.6923 31.7493C60.0526 31.4707 60.4538 31.3232 61.0352 31.3232C61.8377 31.3232 63.025 31.8476 63.025 33.9533V37.5256H61.9442V34.0926C61.9442 32.9291 61.5184 32.2245 60.6258 32.2245C60.0035 32.2245 59.5122 32.6915 59.3238 33.2241C59.2747 33.3716 59.2338 33.5764 59.2338 33.7731V37.5174H58.1529V33.8796C58.1529 32.9128 57.7271 32.2163 56.8919 32.2163C56.204 32.2163 55.7045 32.7653 55.5244 33.3224C55.4589 33.4863 55.4343 33.6747 55.4343 33.8632V37.5256H54.3534V33.1012H54.3616Z" fill="#404042"/>
<path d="M64.8069 33.4375C64.8069 32.6591 64.7824 32.0364 64.7578 31.4547H65.7486L65.7977 32.4953H65.8223C66.2727 31.7579 66.9851 31.3154 67.9759 31.3154C69.4416 31.3154 70.5471 32.5526 70.5471 34.3961C70.5471 36.5756 69.2205 37.6571 67.7957 37.6571C66.9933 37.6571 66.2891 37.3048 65.9288 36.7067H65.9042V40.0004H64.8151V33.4375H64.8069ZM65.896 35.0516C65.896 35.2155 65.9206 35.363 65.9451 35.5022C66.1417 36.2642 66.8131 36.7968 67.5992 36.7968C68.762 36.7968 69.4416 35.8464 69.4416 34.4535C69.4416 33.2409 68.8029 32.2003 67.6401 32.2003C66.8868 32.2003 66.1908 32.7411 65.9779 33.5686C65.9369 33.7079 65.9042 33.8718 65.9042 34.0192V35.0598L65.896 35.0516Z" fill="#404042"/>
<path d="M71.9375 28.6279H73.0429V37.5259H71.9375V28.6279Z" fill="#404042"/>
<path d="M75.5091 34.6907C75.5336 36.1819 76.4835 36.7964 77.5889 36.7964C78.375 36.7964 78.85 36.6571 79.2676 36.4851L79.4559 37.2716C79.071 37.4437 78.4078 37.6485 77.4415 37.6485C75.5746 37.6485 74.4609 36.4195 74.4609 34.5924C74.4609 32.7653 75.5418 31.3232 77.3023 31.3232C79.2839 31.3232 79.808 33.0684 79.808 34.1827C79.808 34.4121 79.7834 34.5842 79.7671 34.6989H75.5091V34.6907ZM78.7435 33.9042C78.7599 33.1995 78.4569 32.1098 77.2123 32.1098C76.0986 32.1098 75.6073 33.134 75.5254 33.9042H78.7435Z" fill="#404042"/>
<path d="M82.4909 29.7173V31.4625H84.0713V32.2982H82.4909V35.5673C82.4909 36.3211 82.7038 36.7472 83.318 36.7472C83.6046 36.7472 83.8175 36.7062 83.9567 36.6734L84.0058 37.501C83.7929 37.5911 83.4572 37.6485 83.0314 37.6485C82.5155 37.6485 82.1061 37.4846 81.844 37.1814C81.5329 36.8537 81.4182 36.3129 81.4182 35.6001V32.29H80.4766V31.4543H81.4182V30.0041L82.4991 29.7173H82.4909Z" fill="#404042"/>
<path d="M88.6681 37.5256L88.5781 36.7636H88.5371C88.2014 37.2389 87.5463 37.6649 86.6865 37.6649C85.4583 37.6649 84.8359 36.7964 84.8359 35.9197C84.8359 34.4531 86.1379 33.6502 88.4798 33.6665V33.5436C88.4798 33.0438 88.3406 32.1426 87.1041 32.1426C86.5391 32.1426 85.9496 32.3146 85.5238 32.5932L85.2699 31.864C85.7694 31.5363 86.4982 31.3232 87.2597 31.3232C89.1103 31.3232 89.5607 32.585 89.5607 33.8058V36.0754C89.5607 36.5998 89.5853 37.116 89.659 37.5256H88.66H88.6681ZM88.5126 34.4285C87.3089 34.4039 85.9414 34.617 85.9414 35.7968C85.9414 36.5096 86.4163 36.8456 86.9813 36.8456C87.7674 36.8456 88.2751 36.3458 88.4471 35.8296C88.488 35.7149 88.5126 35.592 88.5126 35.4773V34.4285Z" fill="#404042"/>
<path d="M94.6184 34.6907C94.643 36.1819 95.5929 36.7964 96.6983 36.7964C97.4844 36.7964 97.9593 36.6571 98.3769 36.4851L98.5653 37.2716C98.1804 37.4437 97.5172 37.6485 96.5509 37.6485C94.6839 37.6485 93.5703 36.4195 93.5703 34.5924C93.5703 32.7653 94.6512 31.3232 96.4117 31.3232C98.3933 31.3232 98.9174 33.0684 98.9174 34.1827C98.9174 34.4121 98.8928 34.5842 98.8764 34.6989H94.6184V34.6907ZM97.8529 33.9042C97.8693 33.1995 97.5663 32.1098 96.3216 32.1098C95.208 32.1098 94.7167 33.134 94.6348 33.9042H97.8529Z" fill="#404042"/>
<path d="M106.285 37.5256L106.195 36.7636H106.154C105.819 37.2389 105.164 37.6649 104.304 37.6649C103.075 37.6649 102.453 36.7964 102.453 35.9197C102.453 34.4531 103.755 33.6502 106.097 33.6665V33.5436C106.097 33.0438 105.958 32.1426 104.721 32.1426C104.156 32.1426 103.567 32.3146 103.141 32.5932L102.887 31.864C103.387 31.5363 104.115 31.3232 104.877 31.3232C106.728 31.3232 107.178 32.585 107.178 33.8058V36.0754C107.178 36.5998 107.202 37.116 107.276 37.5256H106.277H106.285ZM106.122 34.4285C104.918 34.4039 103.55 34.617 103.55 35.7968C103.55 36.5096 104.025 36.8456 104.59 36.8456C105.376 36.8456 105.884 36.3458 106.056 35.8296C106.097 35.7149 106.122 35.592 106.122 35.4773V34.4285Z" fill="#404042"/>
<path d="M113.289 37.2966C113.003 37.444 112.364 37.6489 111.545 37.6489C109.719 37.6489 108.523 36.4117 108.523 34.5518C108.523 32.6919 109.801 31.3318 111.782 31.3318C112.438 31.3318 113.011 31.4957 113.314 31.6431L113.06 32.4952C112.798 32.3478 112.38 32.2085 111.782 32.2085C110.39 32.2085 109.637 33.2326 109.637 34.5026C109.637 35.9037 110.538 36.7722 111.741 36.7722C112.364 36.7722 112.781 36.6083 113.093 36.469L113.281 37.2966H113.289Z" fill="#404042"/>
<path d="M115.126 34.6907C115.151 36.1819 116.101 36.7964 117.206 36.7964C117.992 36.7964 118.467 36.6571 118.885 36.4851L119.073 37.2716C118.688 37.4437 118.025 37.6485 117.059 37.6485C115.192 37.6485 114.078 36.4195 114.078 34.5924C114.078 32.7653 115.159 31.3232 116.92 31.3232C118.901 31.3232 119.425 33.0684 119.425 34.1827C119.425 34.4121 119.401 34.5842 119.384 34.6989H115.126V34.6907ZM118.353 33.9042C118.369 33.1995 118.066 32.1098 116.821 32.1098C115.708 32.1098 115.216 33.134 115.134 33.9042H118.353Z" fill="#404042"/>
<path d="M120.63 36.3949C120.958 36.608 121.531 36.8374 122.08 36.8374C122.882 36.8374 123.259 36.4359 123.259 35.9361C123.259 35.4117 122.948 35.125 122.129 34.8218C121.04 34.4367 120.524 33.8304 120.524 33.1012C120.524 32.1262 121.31 31.3232 122.612 31.3232C123.226 31.3232 123.767 31.4953 124.102 31.7001L123.824 32.5031C123.586 32.3556 123.144 32.1508 122.587 32.1508C121.932 32.1508 121.572 32.5277 121.572 32.9783C121.572 33.4781 121.932 33.7075 122.727 34.0025C123.775 34.4039 124.315 34.9283 124.315 35.8296C124.315 36.8947 123.488 37.6485 122.047 37.6485C121.384 37.6485 120.77 37.4847 120.344 37.2389L120.622 36.4031L120.63 36.3949Z" fill="#404042"/>
<path d="M125.583 36.3949C125.911 36.608 126.484 36.8374 127.033 36.8374C127.835 36.8374 128.212 36.4359 128.212 35.9361C128.212 35.4117 127.901 35.125 127.082 34.8218C125.993 34.4367 125.477 33.8304 125.477 33.1012C125.477 32.1262 126.263 31.3232 127.565 31.3232C128.179 31.3232 128.72 31.4953 129.055 31.7001L128.777 32.5031C128.54 32.3556 128.097 32.1508 127.541 32.1508C126.885 32.1508 126.525 32.5277 126.525 32.9783C126.525 33.4781 126.885 33.7075 127.68 34.0025C128.728 34.4039 129.268 34.9283 129.268 35.8296C129.268 36.8947 128.441 37.6485 127 37.6485C126.337 37.6485 125.723 37.4847 125.297 37.2389L125.575 36.4031L125.583 36.3949Z" fill="#404042"/>
<path d="M132.935 28.8408L131.403 30.6352H130.617L131.723 28.8408H132.935ZM130.691 37.5258V31.4627H131.796V37.5258H130.691Z" fill="#404042"/>
<path d="M134.061 31.4546L135.249 34.863C135.445 35.412 135.609 35.9118 135.74 36.4198H135.781C135.92 35.92 136.092 35.4202 136.297 34.863L137.476 31.4546H138.63L136.248 37.5177H135.199L132.898 31.4546H134.078H134.061Z" fill="#404042"/>
<path d="M140.134 34.6907C140.159 36.1819 141.108 36.7964 142.214 36.7964C143 36.7964 143.475 36.6571 143.893 36.4851L144.081 37.2716C143.696 37.4437 143.033 37.6485 142.067 37.6485C140.2 37.6485 139.086 36.4195 139.086 34.5924C139.086 32.7653 140.167 31.3232 141.927 31.3232C143.909 31.3232 144.433 33.0684 144.433 34.1827C144.433 34.4121 144.408 34.5842 144.392 34.6989H140.134V34.6907ZM143.369 33.9042C143.385 33.1995 143.082 32.1098 141.837 32.1098C140.724 32.1098 140.232 33.134 140.15 33.9042H143.369Z" fill="#404042"/>
<path d="M145.805 28.6279H146.91V37.5259H145.805V28.6279Z" fill="#404042"/>
</svg>
