<svg width="40" height="28" viewBox="0 0 40 28" fill="none" xmlns="http://www.w3.org/2000/svg">
<rect x="0.581683" y="0.581683" width="38.3911" height="26.7574" rx="4.07178" fill="white" stroke="#CACACA" stroke-width="1.16337"/>
<path d="M21.4473 5.58539C26.1617 5.51205 29.9927 9.32534 30.0664 14.019V14.0922C29.919 18.7125 26.1617 22.4526 21.4473 22.4526H18.4277C13.8606 22.3792 10.1768 18.6391 10.1768 14.0922C10.0294 9.54527 13.5661 5.73207 18.0596 5.58539H21.4473ZM18.6475 7.05219C14.817 7.05228 11.6494 10.2055 11.6494 14.019C11.6495 17.8324 14.8171 20.9857 18.6475 20.9858C22.4779 20.9858 25.6454 17.8325 25.6455 14.019C25.6455 10.2054 22.478 7.05219 18.6475 7.05219ZM17.541 18.7123C14.963 18.0521 13.4162 15.4119 14.0791 12.8452C14.5211 11.1585 15.8469 9.83799 17.541 9.39789V18.7123ZM19.752 9.39789C22.33 10.0579 23.9508 12.6251 23.2881 15.1918C22.8461 16.9519 21.5198 18.2723 19.752 18.7123V9.39789Z" fill="#0079BE"/>
</svg>
