<svg width="40" height="28" viewBox="0 0 40 28" fill="none" xmlns="http://www.w3.org/2000/svg">
<rect x="0.581683" y="0.581683" width="38.3911" height="26.7574" rx="4.07178" fill="white" stroke="#CACACA" stroke-width="1.16337"/>
<path d="M9.10447 11.0469C9.43916 10.9371 9.79721 10.8776 10.1698 10.8776C11.7956 10.8776 13.1518 12.0105 13.463 13.5156L15.7669 13.0547C15.2383 10.4968 12.9335 8.57132 10.1698 8.57132C9.53699 8.57132 8.92793 8.67244 8.35938 8.85872L9.10447 11.0469Z" fill="#FECA2F"/>
<path d="M6.36322 18.4598L7.74273 16.6786C7.12696 16.0558 6.7383 15.1465 6.7383 14.1329C6.7383 13.1201 7.12659 12.2108 7.74219 11.5884L6.36195 9.8074C5.31562 10.8656 4.65625 12.4113 4.65625 14.1329C4.65625 15.8554 5.31658 17.4017 6.36322 18.4598Z" fill="#1BA7DE"/>
<path d="M13.4637 14.7516C13.1515 16.2564 11.7961 17.388 10.1717 17.388C9.79899 17.388 9.44025 17.3282 9.10553 17.2181L8.35938 19.4074C8.92881 19.5946 9.53807 19.6959 10.1717 19.6959C12.9329 19.6959 15.2362 17.7717 15.7669 15.2148L13.4637 14.7516Z" fill="#EC412A"/>
<path d="M23.9932 16.908C23.3701 17.4976 22.5133 17.8551 21.5732 17.8416C20.9275 17.8319 20.3283 17.6482 19.8203 17.3376L20.5625 16.1941C20.8616 16.3772 21.2131 16.4877 21.5928 16.4939C22.1469 16.5015 22.6494 16.2893 23.0195 15.9412L23.9932 16.908ZM26.8506 16.1375L27.9863 16.5925L27.4492 17.8416L26.3262 17.3894C26.0736 17.2835 25.9023 17.1224 25.7725 16.9402C25.6478 16.7537 25.5557 16.4989 25.5557 16.155V9.80737H26.8506V16.1375ZM34.8984 15.2205C34.5831 16.7159 33.2153 17.8415 31.5762 17.8416C31.2 17.8416 30.8382 17.782 30.5 17.6726L30.9424 16.3923C31.1414 16.4566 31.3548 16.4919 31.5762 16.4919C32.5406 16.4919 33.3458 15.8297 33.5312 14.95L34.8984 15.2205ZM30.2549 13.1189C29.8427 13.4721 29.5831 13.9877 29.583 14.5623C29.583 15.1377 29.8429 15.6541 30.2559 16.0076L29.3311 17.0193C28.6289 16.4184 28.1865 15.5402 28.1865 14.5623C28.1866 13.5856 28.6287 12.7078 29.3301 12.1072L30.2549 13.1189ZM21.6748 11.2849C23.2625 11.309 24.5782 12.384 24.9238 13.8142L18.7832 16.3523C18.4266 15.8251 18.2235 15.1908 18.2344 14.5125C18.2626 12.7024 19.8044 11.2574 21.6748 11.2849ZM21.6572 12.6335C20.5551 12.6159 19.6475 13.4674 19.6299 14.5339C19.6277 14.6124 19.6332 14.6905 19.6416 14.7664L23.1504 13.3181C22.7903 12.907 22.2571 12.6413 21.6572 12.6335ZM31.5791 11.2839C33.2197 11.284 34.5885 12.4109 34.9023 13.908L33.5342 14.1775C33.3498 13.2965 32.5444 12.6337 31.5791 12.6335C31.3579 12.6335 31.1449 12.6677 30.9463 12.7322L30.5039 11.4519C30.8413 11.343 31.2031 11.2839 31.5791 11.2839Z" fill="#0B0B0B"/>
</svg>
