<svg width="40" height="28" viewBox="0 0 40 28" fill="none" xmlns="http://www.w3.org/2000/svg">
<rect x="0.581683" y="0.581683" width="38.3911" height="26.7574" rx="4.07178" fill="white" stroke="#CACACA" stroke-width="1.16337"/>
<path d="M25.0986 5.81686C29.4553 5.81686 32.9873 9.30697 32.9873 13.6118C32.9871 17.9164 29.4552 21.4057 25.0986 21.4057C23.1455 21.4057 21.3591 20.7033 19.9814 19.5415C18.6039 20.703 16.8181 21.4057 14.8652 21.4057C10.5087 21.4057 6.97676 17.9164 6.97656 13.6118C6.97656 9.30697 10.5086 5.81686 14.8652 5.81686C16.8181 5.81692 18.6039 6.51963 19.9814 7.68112C21.3591 6.51935 23.1455 5.81691 25.0986 5.81686Z" fill="#ED0006"/>
<path d="M25.0938 5.81689C29.4503 5.817 32.9824 9.30707 32.9824 13.6118C32.9822 17.9164 29.4502 21.4057 25.0938 21.4058C23.1404 21.4058 21.3543 20.7025 19.9766 19.5405C21.6715 18.1109 22.7479 15.9864 22.748 13.6118C22.748 11.2371 21.6717 9.11178 19.9766 7.68213C21.3543 6.52019 23.1404 5.81689 25.0938 5.81689Z" fill="#F9A000"/>
<path d="M19.9814 7.68192C21.6769 9.11157 22.7539 11.2366 22.7539 13.6116C22.7538 15.9864 21.6767 18.1107 19.9814 19.5403C18.2868 18.1107 17.211 15.9859 17.2109 13.6116C17.2109 11.2371 18.2866 9.11157 19.9814 7.68192Z" fill="#FF5E00"/>
</svg>
