<svg width="40" height="28" viewBox="0 0 40 28" fill="none" xmlns="http://www.w3.org/2000/svg">
<rect x="0.581683" y="0.581683" width="38.3911" height="26.7574" rx="4.07178" fill="white" stroke="#CACACA" stroke-width="1.16337"/>
<path d="M14.0105 8.14352H11.3579C10.1858 8.20136 9.22777 8.69402 8.95114 9.70997C8.80689 10.2398 8.72751 10.8217 8.61472 11.3709C8.04131 14.1637 7.53286 17.0333 6.98438 19.7703H27.6356C29.2321 19.7703 30.3283 19.4182 30.6246 18.0958C30.7622 17.4815 30.894 16.7857 31.0257 16.1108C31.539 13.4792 32.0527 10.8479 32.5784 8.14352H14.0105Z" fill="#B82126"/>
<path d="M24.6663 15.0898C24.3799 15.3824 23.576 15.4655 23.6582 14.7661C23.7265 14.1851 24.3326 14.0617 24.9894 14.1456C24.9406 14.4633 24.8846 14.8668 24.6663 15.0898ZM23.7616 12.8237C23.7343 12.984 23.6923 13.129 23.6582 13.2823C23.9862 13.1965 25.0074 12.9334 25.1058 13.3902C25.1385 13.542 25.0821 13.7032 25.0412 13.8219C24.1177 13.7306 23.365 13.8907 23.1671 14.5772C23.0345 15.037 23.1819 15.4896 23.4644 15.6159C24.0083 15.8591 24.67 15.5805 24.899 15.1977C24.8752 15.3302 24.8527 15.464 24.8602 15.6293H25.3384C25.3435 15.1514 25.4101 14.7645 25.4806 14.3344C25.5407 13.9682 25.6536 13.6056 25.6357 13.2823C25.5946 12.542 24.4194 12.8039 23.7616 12.8237ZM28.5566 15.3191C28.1825 15.3275 27.9965 15.0858 27.9879 14.6851C27.973 13.9834 28.268 13.2039 28.8668 13.1339C29.1457 13.1014 29.3475 13.1691 29.5518 13.2419C29.3643 14.0301 29.432 15.2995 28.5566 15.3191ZM29.7974 11.6098C29.7498 12.0456 29.6861 12.4648 29.6036 12.8642C28.2403 12.4139 27.4043 13.4606 27.4193 14.7526C27.4222 15.0024 27.4634 15.2502 27.6132 15.427C27.8712 15.7316 28.6101 15.8044 28.9832 15.5484C29.0554 15.4989 29.1292 15.4087 29.1771 15.3461C29.213 15.299 29.2701 15.1757 29.2804 15.2111C29.2608 15.3481 29.2315 15.4749 29.2288 15.6293H29.7328C29.8299 14.175 30.1303 12.9328 30.3532 11.6098H29.7974ZM15.5674 15.1033C15.2701 15.4319 14.5391 15.4269 14.4818 14.874C14.4568 14.6334 14.5427 14.3811 14.5851 14.1321C14.6281 13.8802 14.659 13.6384 14.7014 13.4172C14.9943 13.044 15.8549 12.9989 15.9422 13.6196C16.018 14.1584 15.8137 14.8311 15.5674 15.1033ZM16.0069 12.8237C15.5365 12.6393 14.9632 12.8595 14.7147 13.0688C14.7155 13.0781 14.7087 13.0793 14.7014 13.08C14.7057 13.0763 14.7102 13.0726 14.7147 13.0688C14.7146 13.0681 14.7146 13.0674 14.7144 13.0665C14.7186 12.9765 14.7489 12.9138 14.7532 12.8237H14.2749C14.0757 14.2074 13.8393 15.5524 13.5899 16.8837H14.1457C14.2261 16.3652 14.2793 15.8182 14.3913 15.3326C14.5182 15.8433 15.3469 15.7457 15.6966 15.5484C16.4182 15.1412 16.9748 13.2032 16.0069 12.8237ZM18.6435 13.7949H17.3381C17.3794 13.4817 17.6494 13.1375 18.0748 13.1205C18.4751 13.1045 18.7618 13.2739 18.6435 13.7949ZM18.1136 12.7698C17.712 12.8021 17.3725 12.9227 17.1313 13.1879C16.8354 13.5132 16.5958 14.2325 16.666 14.8875C16.7662 15.8219 17.881 15.7884 18.7727 15.5619C18.7879 15.3979 18.8259 15.2577 18.8503 15.1033C18.4829 15.2468 17.8451 15.447 17.4673 15.1977C17.1821 15.0095 17.1804 14.5328 17.2735 14.1186C17.8728 14.0987 18.4957 14.1025 19.0958 14.1186C19.1339 13.825 19.2429 13.5049 19.1475 13.2149C19.0217 12.8321 18.5716 12.733 18.1136 12.7698ZM13.2281 12.8237C13.213 12.826 13.214 12.8451 13.2151 12.8642C13.0927 13.8199 12.9269 14.7306 12.7498 15.6293H13.3056C13.4391 14.6671 13.5921 13.7252 13.7838 12.8237H13.2281ZM27.7295 12.8372C27.2383 12.5809 26.8294 13.011 26.6697 13.2688C26.7152 13.1365 26.7178 12.9594 26.7601 12.8237H26.269C26.1366 13.7871 25.9769 14.722 25.7908 15.6293H26.3595C26.3631 15.2575 26.433 14.9824 26.4887 14.6177C26.6076 13.8391 26.782 12.9851 27.652 13.2419C27.6808 13.1102 27.6928 12.9608 27.7295 12.8372ZM21.4869 14.9684C21.4357 14.8303 21.4224 14.6022 21.4352 14.4288C21.4639 14.0391 21.6 13.5646 21.81 13.3498C22.0998 13.0533 22.672 13.1024 23.1283 13.2688C23.1424 13.1083 23.1734 12.9651 23.1929 12.8103C22.4445 12.6827 21.7342 12.762 21.3576 13.1744C20.989 13.5781 20.7473 14.506 20.9182 15.0898C21.1181 15.7729 22.0146 15.8101 22.7406 15.5484C22.7727 15.4111 22.7897 15.258 22.8181 15.1168C22.4215 15.3319 21.6632 15.4436 21.4869 14.9684ZM21.1767 12.8237C20.6839 12.616 20.2965 12.967 20.1169 13.2958C20.1576 13.1496 20.1744 12.9782 20.2074 12.8237H19.7162C19.5962 13.7955 19.4192 14.7079 19.2509 15.6293H19.8067C19.8846 15.0824 19.9182 14.3451 20.091 13.8219C20.2291 13.4038 20.5906 13.0476 21.1121 13.2419C21.1194 13.0876 21.1617 12.9699 21.1767 12.8237ZM12.2199 11.6907C12.1406 12.2283 12.0511 12.7554 11.9614 13.2823C11.3857 13.2887 10.7978 13.312 10.2425 13.2688C10.3474 12.7534 10.4226 12.2069 10.5268 11.6907H9.90644C9.68433 13.0056 9.48234 14.3415 9.23438 15.6293H9.86765C9.96702 14.9686 10.0599 14.3013 10.1907 13.6735C10.7307 13.6596 11.3779 13.6354 11.8968 13.687C11.7898 14.3397 11.6605 14.9691 11.5608 15.6293H12.1941C12.3976 14.295 12.612 12.9721 12.8662 11.6907H12.2199ZM13.7967 12.2842C13.9075 12.2046 14.0502 11.8417 13.8872 11.6907C13.8356 11.6429 13.7492 11.629 13.6287 11.6503C13.517 11.6699 13.4527 11.7095 13.409 11.7716C13.3388 11.8714 13.2744 12.1724 13.3831 12.2842C13.489 12.3931 13.7262 12.3348 13.7967 12.2842Z" fill="white"/>
</svg>
