<svg width="40" height="28" viewBox="0 0 40 28" fill="none" xmlns="http://www.w3.org/2000/svg">
<rect width="39.5545" height="27.9208" rx="4.65347" fill="#1F72CD"/>
<path d="M11.4648 10.2982V9.30695H15.8867L16.8564 11.4827L17.8037 9.30695H28.8369L29.9551 10.5921L31.1553 9.30695H36.2842L32.5713 13.5462L36.2842 17.7484L31.0742 17.7376L29.9199 16.428L28.6865 17.7376H18.5449V16.6898L18.1104 17.7376H15.5879L15.1533 16.7112V17.7376H10.2764L9.72754 16.3929H8.47168L7.92285 17.7376H3.49219L7.19336 9.30695H10.9736L11.4648 10.2982ZM5.45508 16.5521H7.03418L7.5918 15.1976H10.6094L11.168 16.553H14.1143V11.8128L16.2148 16.553H17.4961L19.584 11.8128L19.5957 16.553H21.0283V10.5042H18.6738L16.9268 14.6028L15.0303 10.5042H12.665V16.221L10.21 10.5042H8.05078C8.03093 10.5505 5.45508 16.5521 5.45508 16.5521ZM22.3379 16.5501H28.0713L29.9199 14.5462L31.7012 16.5501H33.5635L30.8564 13.5443L33.5635 10.5042H31.7822L29.9434 12.4847L28.1621 10.5042H22.3379V16.5501ZM27.4121 11.7562L28.998 13.5218L27.3418 15.2982H23.7783V14.0921H26.9561V12.8616H23.7783V11.7562H27.4121ZM10.0918 13.9437H8.10449L9.09863 11.5276L10.0918 13.9437Z" fill="white"/>
</svg>
