<svg width="40" height="28" viewBox="0 0 40 28" fill="none" xmlns="http://www.w3.org/2000/svg">
<rect x="0.581683" y="0.581683" width="38.3911" height="26.7574" rx="4.07178" fill="white" stroke="#CACACA" stroke-width="1.16337"/>
<path d="M32.4319 9.43759H30.5596C29.9936 9.43759 29.5582 9.61176 29.2969 10.1778L25.7266 18.32H28.252C28.252 18.32 28.6874 17.2315 28.7744 16.9702C29.0357 16.9702 31.5175 16.9702 31.8659 16.9702C31.953 17.275 32.1707 18.2765 32.1707 18.2765H34.4348L32.4319 9.43759ZM29.4711 15.1415C29.6888 14.619 30.429 12.6596 30.429 12.6596C30.429 12.7032 30.6467 12.1371 30.7338 11.8324L30.908 12.6161C30.908 12.6161 31.3869 14.7496 31.474 15.185H29.4711V15.1415Z" fill="#3362AB"/>
<path d="M25.8996 15.4027C25.8996 17.2314 24.245 18.4506 21.6761 18.4506C20.5876 18.4506 19.5426 18.2329 18.9766 17.9716L19.3249 15.9688L19.6297 16.0994C20.4134 16.4477 20.9359 16.5783 21.8938 16.5783C22.5905 16.5783 23.3307 16.3171 23.3307 15.7075C23.3307 15.3156 23.0259 15.0544 22.068 14.619C21.1536 14.1836 19.9345 13.4869 19.9345 12.2242C19.9345 10.4826 21.6326 9.30695 24.0273 9.30695C24.9417 9.30695 25.7255 9.48111 26.2044 9.69882L25.8561 11.6146L25.6819 11.4405C25.2465 11.2663 24.6805 11.0921 23.8532 11.0921C22.9388 11.1357 22.5034 11.5275 22.5034 11.8759C22.5034 12.2677 23.0259 12.5725 23.8532 12.9644C25.2465 13.6175 25.8996 14.3577 25.8996 15.4027Z" fill="#3362AB"/>
<path d="M4.65625 9.52484L4.69979 9.35068H8.44434C8.96683 9.35068 9.3587 9.52484 9.48933 10.0909L10.3166 14.0096C9.48933 11.9196 7.57351 10.2215 4.65625 9.52484Z" fill="#F9B50B"/>
<path d="M15.5888 9.43746L11.8007 18.2763H9.23175L7.05469 10.8743C8.62217 11.8758 9.92841 13.4433 10.4074 14.5318L10.6686 15.4462L13.0198 9.39392H15.5888V9.43746Z" fill="#3362AB"/>
<path d="M16.5864 9.39392H18.9812L17.4573 18.2763H15.0625L16.5864 9.39392Z" fill="#3362AB"/>
</svg>
