<svg width="40" height="28" viewBox="0 0 40 28" fill="none" xmlns="http://www.w3.org/2000/svg">
<rect x="0.581683" y="0.581683" width="38.3911" height="26.7574" rx="4.07178" fill="white" stroke="#CACACA" stroke-width="1.16337"/>
<path d="M33.735 12.8626C33.735 7.95077 27.5501 3.94641 19.9222 3.94641C12.2932 3.94641 6.11042 7.95077 6.11042 12.8626C6.11042 12.9895 6.10938 13.3411 6.10938 13.3855C6.10938 18.5954 11.5137 22.8163 19.9201 22.8163C28.3797 22.8163 33.735 18.5974 33.735 13.3855V12.8626Z" fill="#28316B"/>
<path d="M33.2093 12.8571C33.2093 17.4874 27.2647 21.2422 19.9283 21.2422C12.594 21.2422 6.64844 17.4874 6.64844 12.8571C6.64844 8.22571 12.594 4.47091 19.9283 4.47091C27.2647 4.47091 33.2093 8.22571 33.2093 12.8571Z" fill="#50B4E9"/>
<path d="M15.5127 10.2124C15.5054 10.2258 15.3727 10.362 15.4584 10.4692C15.6684 10.7342 16.3163 10.8848 16.9714 10.7404C17.3612 10.6538 17.8596 10.2619 18.3434 9.88346C18.868 9.47199 19.3894 9.05949 19.9118 8.89655C20.4657 8.72227 20.8199 8.79652 21.055 8.86561C21.312 8.94296 21.6151 9.10899 22.0968 9.46683C23.0059 10.1413 26.6599 13.2887 27.29 13.8332C27.7999 13.6063 30.0591 12.6452 33.1301 11.979C32.8636 10.363 31.8668 8.88418 30.3569 7.67349C28.2524 8.54593 25.6798 9.00174 23.1647 7.78795C23.1521 7.78486 21.7906 7.14755 20.4468 7.17951C18.451 7.22489 17.5859 8.07774 16.6705 8.98008L15.5127 10.2124Z" fill="white"/>
<path d="M27.1422 14.1752C27.0993 14.1381 22.8465 10.4638 21.882 9.74911C21.3251 9.33661 21.0147 9.23142 20.6887 9.19017C20.5184 9.16954 20.2854 9.19945 20.1203 9.24482C19.6731 9.36445 19.0869 9.75117 18.5665 10.1575C18.0273 10.5824 17.5195 10.9804 17.0482 11.0856C16.4464 11.2186 15.7107 11.0609 15.3743 10.8371C15.2384 10.7474 15.1433 10.6422 15.0974 10.537C14.973 10.2524 15.2019 10.0265 15.2384 9.98733L16.4129 8.73538C16.5488 8.60132 16.6867 8.46623 16.8278 8.3332C16.4495 8.3827 16.0994 8.4786 15.7578 8.57142C15.3325 8.69001 14.9239 8.80139 14.5091 8.80139C14.3367 8.80139 13.4109 8.65289 13.2353 8.60545C12.1737 8.3167 11.2406 8.03929 9.84874 7.39682C8.18 8.62298 7.06402 10.1565 6.74219 11.8446C6.98147 11.9075 7.36705 12.0199 7.52901 12.055C11.3064 12.8841 12.4819 13.738 12.6961 13.9164C12.9271 13.6627 13.2594 13.5018 13.6313 13.5018C14.0504 13.5039 14.4265 13.7102 14.6554 14.0298C14.8717 13.8607 15.1695 13.7184 15.555 13.7184C15.7295 13.7184 15.9114 13.7493 16.0953 13.8112C16.5216 13.9546 16.741 14.2351 16.8549 14.4898C16.9981 14.4248 17.1736 14.3774 17.3805 14.3784C17.5843 14.3784 17.7964 14.4238 18.0085 14.5145C18.7044 14.8095 18.8131 15.486 18.7504 15.9944C18.8006 15.9882 18.8486 15.9861 18.9009 15.9861C19.7253 15.9872 20.3982 16.6482 20.3972 17.4639C20.3972 17.7166 20.3314 17.9527 20.2185 18.1621C20.4432 18.2858 21.0158 18.5684 21.5174 18.5055C21.9197 18.4549 22.0722 18.3199 22.1265 18.2435C22.1642 18.192 22.2039 18.1301 22.1663 18.0858L21.1025 16.9174C21.1025 16.9174 20.9259 16.7544 20.9834 16.6905C21.044 16.6265 21.1527 16.7193 21.23 16.7823C21.7702 17.2298 22.4337 17.9032 22.4337 17.9032C22.4442 17.9115 22.4891 17.996 22.7326 18.0394C22.9437 18.0765 23.3167 18.0559 23.5758 17.8465C23.6406 17.7939 23.7065 17.7269 23.7608 17.6599C23.7566 17.6629 23.7524 17.6671 23.7483 17.6691C24.021 17.3247 23.718 16.9761 23.718 16.9761L22.4745 15.5984C22.4745 15.5984 22.2958 15.4354 22.3564 15.3694C22.4108 15.3138 22.5257 15.3993 22.603 15.4633C22.997 15.7871 23.5539 16.3398 24.0868 16.8555C24.1913 16.9297 24.6605 17.2164 25.2812 16.8142C25.6573 16.5698 25.7326 16.2708 25.7232 16.0439C25.696 15.7448 25.4598 15.5313 25.4598 15.5313L23.7608 13.8463C23.7608 13.8463 23.5811 13.6947 23.6438 13.6184C23.696 13.5534 23.812 13.6462 23.8893 13.7102C24.4306 14.1567 25.8966 15.4829 25.8966 15.4829C25.9165 15.4973 26.4243 15.8531 27.0481 15.4592C27.2728 15.3179 27.4159 15.1054 27.4274 14.859C27.4494 14.4289 27.1422 14.1752 27.1422 14.1752Z" fill="white"/>
<path d="M18.9073 16.312C18.644 16.3089 18.3566 16.4636 18.318 16.4409C18.2971 16.4275 18.3347 16.3234 18.3598 16.2625C18.3838 16.2038 18.7307 15.1735 17.8854 14.8147C17.2375 14.5403 16.8425 14.8487 16.7067 14.9889C16.6701 15.025 16.6545 15.0219 16.6503 14.9755C16.6377 14.7899 16.5542 14.2877 15.9951 14.1196C15.1958 13.8793 14.6827 14.429 14.5521 14.627C14.4946 14.1784 14.1101 13.8298 13.6388 13.8288C13.1268 13.8288 12.7109 14.2382 12.7109 14.7435C12.7109 15.2478 13.1258 15.6572 13.6378 15.6572C13.8865 15.6582 14.1122 15.5603 14.2783 15.4025C14.2835 15.4076 14.2856 15.4159 14.2825 15.4334C14.2438 15.6593 14.1728 16.4812 15.0453 16.8163C15.3953 16.9504 15.6921 16.8503 15.9387 16.6792C16.0118 16.6286 16.0233 16.6503 16.0129 16.7183C15.9815 16.9298 16.0212 17.3825 16.6649 17.6393C17.1539 17.8362 17.4434 17.6351 17.6325 17.4619C17.7151 17.3876 17.738 17.401 17.7433 17.5145C17.7652 18.127 18.2804 18.6117 18.9063 18.6128C19.5499 18.6128 20.0724 18.0992 20.0724 17.4639C20.0724 16.8277 19.551 16.3193 18.9073 16.312Z" fill="white"/>
<path d="M18.9022 18.5309C18.3181 18.5309 17.8437 18.0823 17.8228 17.513C17.8207 17.4635 17.8154 17.3336 17.7047 17.3336C17.6587 17.3336 17.618 17.3604 17.573 17.4006C17.4435 17.5192 17.2804 17.6378 17.0422 17.6378C16.9335 17.6378 16.8165 17.6131 16.6922 17.5636C16.0757 17.3171 16.0673 16.8984 16.0924 16.7303C16.0986 16.686 16.1007 16.6396 16.0704 16.6035L16.0318 16.5705H15.9942C15.9628 16.5705 15.9294 16.5818 15.8865 16.6128C15.7078 16.7365 15.5365 16.7953 15.363 16.7953C15.2669 16.7953 15.1697 16.7778 15.0704 16.7396C14.2596 16.4282 14.3233 15.6722 14.363 15.4443C14.3683 15.3979 14.3568 15.3629 14.3275 15.3381L14.27 15.2907L14.2167 15.3422C14.0579 15.4938 13.851 15.5753 13.6337 15.5753C13.1697 15.5753 12.7904 15.202 12.7904 14.7431C12.7904 14.2842 13.1708 13.9119 13.6347 13.9119C14.0548 13.9119 14.4132 14.2233 14.4665 14.6389L14.4957 14.8617L14.619 14.673C14.6337 14.6503 14.9743 14.1419 15.6013 14.1419C15.7193 14.1419 15.8426 14.1625 15.9659 14.1996C16.4665 14.3492 16.55 14.7957 16.5636 14.9834C16.573 15.0917 16.6504 15.0968 16.666 15.0968C16.7078 15.0968 16.7413 15.07 16.7632 15.0463C16.8573 14.9483 17.0621 14.7874 17.3839 14.7874C17.5312 14.7885 17.6869 14.8215 17.8478 14.8906C18.642 15.2267 18.2815 16.2229 18.2773 16.2322C18.2094 16.3972 18.2073 16.4704 18.271 16.5117L18.3024 16.5272H18.3254C18.3609 16.5272 18.4048 16.5117 18.479 16.4869C18.5866 16.4498 18.7496 16.3952 18.9022 16.3952H18.9032C19.4999 16.4024 19.9857 16.8809 19.9857 17.4646C19.9847 18.0524 19.4988 18.5309 18.9022 18.5309ZM27.3085 13.7366C25.9993 12.6074 22.9711 10.0086 22.1498 9.4012C21.6816 9.05367 21.3619 8.86907 21.0819 8.7876C20.9554 8.75048 20.7809 8.70717 20.5563 8.70717C20.3483 8.70717 20.1247 8.74429 19.8896 8.81751C19.3588 8.98251 18.8322 9.39707 18.3201 9.7972L18.2951 9.81782C17.8186 10.1911 17.3275 10.5779 16.9555 10.6593C16.7925 10.6954 16.6253 10.714 16.4591 10.714C16.0422 10.714 15.6681 10.5954 15.5281 10.418C15.5041 10.3891 15.5198 10.3427 15.573 10.2736L15.5804 10.2644L16.7329 9.0382C17.6357 8.14823 18.4884 7.30569 20.4518 7.26135C20.4842 7.26032 20.5176 7.25928 20.55 7.25928C21.7715 7.26135 22.993 7.80069 23.1299 7.86257C24.2762 8.41532 25.458 8.69582 26.6471 8.69685C27.8864 8.69685 29.1643 8.39366 30.5081 7.78316C30.3576 7.65838 30.2009 7.53772 30.041 7.4181C28.8602 7.92341 27.7359 8.17916 26.6502 8.17916C25.5416 8.1771 24.434 7.91413 23.3598 7.39644C23.3023 7.37066 21.9544 6.7416 20.55 6.7416C20.5134 6.7416 20.4769 6.7416 20.4403 6.74263C18.7914 6.78078 17.8625 7.35932 17.2376 7.86463C16.6295 7.8801 16.106 8.02448 15.6399 8.15338C15.223 8.26682 14.8646 8.36582 14.5145 8.36582C14.3693 8.36582 14.1102 8.35345 14.0872 8.35241C13.6838 8.34004 11.6536 7.84916 10.0381 7.24485C9.87301 7.36035 9.71418 7.47894 9.56058 7.60063C11.2481 8.28229 13.3014 8.81132 13.9492 8.85154C14.129 8.86495 14.3212 8.88454 14.5135 8.88454C14.9419 8.88454 15.3693 8.76595 15.7841 8.65251C16.0286 8.58341 16.2982 8.5102 16.5814 8.45554C16.5062 8.52979 16.4309 8.60404 16.3546 8.67932L15.1833 9.9292C15.0924 10.021 14.8907 10.2664 15.0234 10.5686C15.0757 10.6903 15.1812 10.8068 15.3317 10.9058C15.6107 11.0914 16.1101 11.2162 16.5741 11.2162C16.7496 11.2172 16.9179 11.1997 17.0704 11.1646C17.5615 11.0574 18.0756 10.6521 18.6211 10.2241C19.0558 9.88279 19.6733 9.4507 20.1456 9.32282C20.2783 9.28776 20.4413 9.2661 20.5719 9.2661C20.6106 9.26714 20.6472 9.26714 20.6806 9.27126C20.993 9.31148 21.2961 9.41564 21.8353 9.81576C22.7966 10.5284 27.0504 14.2017 27.0922 14.2378C27.0954 14.2398 27.366 14.4698 27.3472 14.8555C27.3368 15.069 27.2166 15.2587 27.0076 15.3907C26.8258 15.5042 26.6377 15.5619 26.4496 15.5619C26.1644 15.5619 25.969 15.4299 25.9564 15.4206C25.9397 15.4082 24.4831 14.0893 23.946 13.6469C23.8614 13.5767 23.7788 13.5138 23.6952 13.5138C23.6492 13.5138 23.6095 13.5324 23.5824 13.5654C23.4977 13.6685 23.5928 13.8108 23.7046 13.9047L25.4078 15.5918C25.4099 15.5939 25.6199 15.7888 25.6419 16.0487C25.6555 16.3281 25.5196 16.5622 25.2375 16.7448C25.0369 16.8757 24.8342 16.9417 24.6346 16.9417C24.3723 16.9417 24.1905 16.8242 24.1487 16.7953L23.9052 16.5591C23.458 16.125 22.9972 15.6764 22.6607 15.399C22.5782 15.3309 22.4904 15.269 22.4068 15.269C22.365 15.269 22.3274 15.2855 22.2992 15.3144C22.2605 15.3567 22.2334 15.432 22.3295 15.5578C22.3692 15.6104 22.4152 15.6527 22.4152 15.6527L23.6586 17.0294C23.6691 17.0428 23.9136 17.3305 23.6858 17.6172L23.6419 17.6729C23.6043 17.7131 23.5646 17.7492 23.527 17.7822C23.3149 17.9544 23.0317 17.9719 22.9199 17.9719C22.8593 17.9719 22.8008 17.9668 22.7516 17.9575C22.6283 17.9369 22.5458 17.9029 22.5071 17.8564L22.4925 17.8399C22.4235 17.7719 21.7976 17.1397 21.2794 16.7138C21.2114 16.6581 21.1258 16.5859 21.038 16.5859C20.9941 16.5859 20.9554 16.6035 20.9262 16.6354C20.8227 16.7468 20.9763 16.9128 21.0422 16.9727L22.1028 18.1256C22.1017 18.1359 22.0871 18.1607 22.061 18.1968C22.0233 18.2494 21.8948 18.3762 21.5113 18.4236C21.4654 18.4288 21.4173 18.4309 21.3703 18.4309C20.9732 18.4309 20.551 18.2411 20.3327 18.1266C20.433 17.9204 20.4842 17.6935 20.4842 17.4646C20.4842 16.6035 19.7757 15.9033 18.9032 15.9033C18.8844 15.9033 18.8656 15.9033 18.8457 15.9043C18.876 15.5114 18.8196 14.7668 18.0453 14.4399C17.8228 14.344 17.6002 14.2966 17.3839 14.2966C17.2157 14.2966 17.0527 14.3244 16.8991 14.3832C16.7402 14.0748 16.4738 13.8511 16.1258 13.7345C15.9335 13.6685 15.7434 13.6355 15.5584 13.6355C15.2355 13.6355 14.9398 13.7283 14.6755 13.914C14.4215 13.6036 14.0381 13.419 13.6347 13.419C13.2826 13.419 12.943 13.5582 12.6912 13.8046C12.362 13.5551 11.0527 12.7352 7.5512 11.9505C7.38192 11.9133 6.99321 11.803 6.75393 11.7339C6.71422 11.9206 6.68496 12.1093 6.66406 12.3001C6.66406 12.3001 7.30982 12.4527 7.4373 12.4816C11.0141 13.2663 12.1969 14.081 12.3965 14.2347C12.3286 14.3956 12.2941 14.5688 12.293 14.7431C12.293 15.4732 12.8939 16.0662 13.6337 16.0672C13.7162 16.0672 13.7977 16.06 13.8792 16.0456C13.991 16.5818 14.3463 16.9892 14.8907 17.1975C15.0485 17.2583 15.2105 17.2893 15.3682 17.2893C15.4706 17.2893 15.572 17.2769 15.6734 17.2521C15.7737 17.5027 16.0004 17.8173 16.5051 18.0194C16.6828 18.0895 16.8593 18.1256 17.0318 18.1256C17.1728 18.1256 17.3108 18.1019 17.4414 18.0544C17.6838 18.6371 18.2595 19.0228 18.9022 19.0228C19.3274 19.0238 19.736 18.8526 20.0349 18.5494C20.2898 18.6887 20.829 18.9413 21.3724 18.9424C21.4434 18.9424 21.5092 18.9393 21.5761 18.931C22.1163 18.8629 22.3671 18.6546 22.4831 18.4927C22.504 18.4639 22.5228 18.4329 22.5385 18.403C22.667 18.4391 22.806 18.468 22.9679 18.468C23.2626 18.468 23.5458 18.37 23.8331 18.1638C24.1132 17.9627 24.3138 17.676 24.342 17.4316C24.3431 17.4285 24.3441 17.4243 24.3441 17.4202C24.4392 17.4398 24.5374 17.4491 24.6325 17.4491C24.9376 17.4491 25.2365 17.3563 25.5217 17.1717C26.0724 16.8149 26.1685 16.3498 26.1602 16.0445C26.2563 16.0631 26.3545 16.0744 26.4528 16.0744C26.738 16.0744 27.0181 15.9899 27.2845 15.8218C27.6272 15.6062 27.832 15.2762 27.8634 14.8926C27.8853 14.6317 27.8195 14.3687 27.6795 14.1419C28.6032 13.749 30.7129 12.99 33.1988 12.4372C33.1831 12.2464 33.1559 12.0587 33.1204 11.8721C30.1142 12.5311 27.8707 13.4881 27.3085 13.7366Z" fill="#28316B"/>
</svg>
