<svg width="40" height="28" viewBox="0 0 40 28" fill="none" xmlns="http://www.w3.org/2000/svg">
<rect x="0.581683" y="0.581683" width="38.3911" height="26.7574" rx="4.07178" fill="white" stroke="#CACACA" stroke-width="1.16337"/>
<path d="M18.6338 10.7864L20.3838 10.7884C21.5822 10.7908 22.5644 11.7338 22.5645 12.8997V14.1165C22.5645 15.286 21.5791 16.2304 20.377 16.2307H17.9023C17.8037 16.2305 17.7159 16.1623 17.6953 16.0657L17.6914 16.0218L17.6953 15.9788C17.7158 15.8822 17.8037 15.814 17.9023 15.8138H20.377C21.3533 15.8138 22.1406 15.0481 22.1406 14.1165V12.8997C22.1409 11.9718 21.3566 11.2075 20.3838 11.2054L18.6328 11.2034C17.6569 11.2035 16.8692 11.9682 16.8691 12.8997V18.6184L16.8652 18.6614C16.8452 18.7587 16.7569 18.8273 16.6582 18.8274C16.5451 18.8274 16.4463 18.7376 16.4463 18.6184V12.8997C16.4464 11.7304 17.4309 10.7866 18.6328 10.7864H18.6338Z" fill="#3A3A3C" stroke="#3A3A3C" stroke-width="0.232673"/>
<path d="M23.6055 10.7864C24.1652 10.7867 24.6279 11.2267 24.6279 11.7766V16.0481C24.6279 16.1671 24.5289 16.257 24.416 16.2571C24.303 16.2571 24.2041 16.1672 24.2041 16.0481V11.7766C24.2041 11.4646 23.9394 11.2037 23.6055 11.2034H22.8457C22.7326 11.2034 22.6338 11.1135 22.6338 10.9944C22.634 10.8755 22.7328 10.7864 22.8457 10.7864H23.6055Z" fill="#3A3A3C" stroke="#3A3A3C" stroke-width="0.232673"/>
<path d="M24.2522 10.3314L23.9079 9.99907C23.8224 9.91694 23.8224 9.78328 23.9079 9.70085L24.2522 9.36877C24.3376 9.28634 24.4765 9.28634 24.562 9.36877L24.906 9.70085C24.9915 9.78299 24.9915 9.91664 24.906 9.99907L24.5605 10.3314C24.475 10.4139 24.3364 10.4139 24.2509 10.3314" fill="#32BCAD"/>
<path d="M26.623 10.7812C27.0678 10.7814 27.4868 10.9487 27.8027 11.2529L29.5645 12.9521C29.71 13.0925 29.9484 13.0921 30.0938 12.9521H30.0947V12.9512L31.8496 11.2598C32.1653 10.9553 32.5847 10.7881 33.0293 10.7881H33.6426C33.7555 10.7881 33.8543 10.8771 33.8545 10.9961C33.8545 11.1152 33.7556 11.2051 33.6426 11.2051H33.0293C32.6947 11.2051 32.381 11.3307 32.1455 11.5576L30.3906 13.25L30.3896 13.251C30.2348 13.4003 30.0316 13.4736 29.8301 13.4736C29.6278 13.4736 29.4241 13.4001 29.2686 13.25L27.5068 11.5508C27.2715 11.3238 26.9579 11.1983 26.623 11.1982H25.8691C25.7561 11.1982 25.6572 11.1084 25.6572 10.9893C25.6574 10.8703 25.7562 10.7812 25.8691 10.7812H26.623Z" fill="#3A3A3C" stroke="#3A3A3C" stroke-width="0.232673"/>
<path d="M29.2676 13.7492C29.5776 13.4502 30.0804 13.451 30.3906 13.7492L32.1465 15.4425C32.3819 15.6695 32.6957 15.7951 33.0303 15.7951H33.6426C33.7556 15.7951 33.8544 15.8841 33.8545 16.0031C33.8545 16.1222 33.7556 16.2121 33.6426 16.2121H33.0293C32.5847 16.212 32.1655 16.0445 31.8496 15.7404L30.0938 14.047C29.9485 13.9071 29.7102 13.907 29.5645 14.047L27.8027 15.7462C27.4876 16.0508 27.0678 16.2178 26.623 16.2179H25.8691C25.7703 16.2179 25.6817 16.1497 25.6611 16.0529L25.6572 16.0099L25.6611 15.966C25.6817 15.8692 25.7703 15.8009 25.8691 15.8009H26.6221L26.7471 15.7951C27.0346 15.7679 27.3008 15.6469 27.5068 15.4484L29.2676 13.7492Z" fill="#3A3A3C" stroke="#3A3A3C" stroke-width="0.232673"/>
<path d="M12.1688 17.0944C11.7936 17.0956 11.4331 16.9522 11.1682 16.6961L9.72286 15.3012C9.61663 15.2032 9.44936 15.2032 9.34314 15.3012L7.89292 16.6999C7.62797 16.9566 7.26779 17.1003 6.89234 17.0994H6.60938L8.44084 18.8658C9.01286 19.4163 9.93867 19.4163 10.5107 18.8658L12.3458 17.0956L12.1688 17.0944Z" fill="#32BCAD"/>
<path d="M6.89264 12.1654C7.26809 12.1645 7.62828 12.3082 7.89323 12.5649L9.34344 13.9639C9.44844 14.0649 9.61816 14.0649 9.72316 13.9639L11.1682 12.5702C11.4328 12.3132 11.7933 12.1692 12.1688 12.1704H12.3428L10.5076 10.4005C9.93622 9.84909 9.00981 9.84909 8.43809 10.4002L8.43778 10.4005L6.60938 12.1654H6.89264Z" fill="#32BCAD"/>
<path d="M13.8619 13.6356L12.753 12.566C12.728 12.5757 12.7014 12.581 12.6742 12.5813H12.17C11.9075 12.5819 11.6559 12.6826 11.47 12.861L10.025 14.2538C9.75397 14.5146 9.31533 14.5146 9.04428 14.2538L7.59376 12.8557C7.40787 12.677 7.15635 12.5763 6.89384 12.5757H6.2748C6.24916 12.5751 6.22413 12.5704 6.20032 12.5613L5.08435 13.6356C4.51355 14.1873 4.51355 15.0802 5.08435 15.6319L6.19788 16.7058C6.22169 16.6967 6.24672 16.6917 6.27236 16.6914H6.89384C7.15635 16.6905 7.40787 16.5901 7.59376 16.4114L9.04397 15.0128C9.30618 14.7602 9.76313 14.7602 10.025 15.0128L11.47 16.4061C11.6559 16.5845 11.9075 16.6852 12.17 16.6858H12.6742C12.7014 16.6861 12.728 16.6911 12.753 16.7011L13.8619 15.6316C14.4337 15.0805 14.4337 14.187 13.8622 13.6356C13.8622 13.6356 13.8622 13.6356 13.8619 13.6356Z" fill="#32BCAD"/>
</svg>
