<svg width="40" height="28" viewBox="0 0 40 28" fill="none" xmlns="http://www.w3.org/2000/svg">
<rect x="0.581683" y="0.581683" width="38.3911" height="26.7574" rx="4.07178" fill="white" stroke="#CACACA" stroke-width="1.16337"/>
<path fill-rule="evenodd" clip-rule="evenodd" d="M7.75781 8.14352H9.1022V20.7372H7.75781V8.14352Z" fill="#0B0B0B"/>
<path fill-rule="evenodd" clip-rule="evenodd" d="M9.53125 8.14352H9.94643V20.7372H9.53125V8.14352Z" fill="#0B0B0B"/>
<path fill-rule="evenodd" clip-rule="evenodd" d="M10.3125 8.14352H11.0588V20.7372H10.3125V8.14352Z" fill="#0B0B0B"/>
<path fill-rule="evenodd" clip-rule="evenodd" d="M11.7812 8.14352H12.1989V20.7372H11.7812V8.14352Z" fill="#0B0B0B"/>
<path fill-rule="evenodd" clip-rule="evenodd" d="M12.375 8.14352H12.6963V20.7372H12.375V8.14352Z" fill="#0B0B0B"/>
<path fill-rule="evenodd" clip-rule="evenodd" d="M6.73438 8.14352H7.15202V20.7372H6.73438V8.14352Z" fill="#0B0B0B"/>
<path fill-rule="evenodd" clip-rule="evenodd" d="M5.82031 8.14352H6.56664V20.7372H5.82031V8.14352Z" fill="#0B0B0B"/>
<path fill-rule="evenodd" clip-rule="evenodd" d="M14.9219 8.14352H16.2687V20.7372H14.9219V8.14352Z" fill="#0B0B0B"/>
<path fill-rule="evenodd" clip-rule="evenodd" d="M16.6875 8.14352H17.1051V20.7372H16.6875V8.14352Z" fill="#0B0B0B"/>
<path fill-rule="evenodd" clip-rule="evenodd" d="M17.4688 8.14352H18.2151V20.7372H17.4688V8.14352Z" fill="#0B0B0B"/>
<path fill-rule="evenodd" clip-rule="evenodd" d="M18.9375 8.14352H19.3527V20.7372H18.9375V8.14352Z" fill="#0B0B0B"/>
<path fill-rule="evenodd" clip-rule="evenodd" d="M19.5391 8.14352H19.8603V20.7372H19.5391V8.14352Z" fill="#0B0B0B"/>
<path fill-rule="evenodd" clip-rule="evenodd" d="M13.8984 8.14352H14.3136V20.7372H13.8984V8.14352Z" fill="#0B0B0B"/>
<path fill-rule="evenodd" clip-rule="evenodd" d="M12.9844 8.14352H13.7307V20.7372H12.9844V8.14352Z" fill="#0B0B0B"/>
<path fill-rule="evenodd" clip-rule="evenodd" d="M20.3828 8.14352H21.1267V20.7372H20.3828V8.14352Z" fill="#0B0B0B"/>
<path fill-rule="evenodd" clip-rule="evenodd" d="M21.8516 8.14352H22.2692V20.7372H21.8516V8.14352Z" fill="#0B0B0B"/>
<path fill-rule="evenodd" clip-rule="evenodd" d="M22.4453 8.14352H22.7641V20.7372H22.4453V8.14352Z" fill="#0B0B0B"/>
<path fill-rule="evenodd" clip-rule="evenodd" d="M23.9766 8.14352H24.3942V20.7372H23.9766V8.14352Z" fill="#0B0B0B"/>
<path fill-rule="evenodd" clip-rule="evenodd" d="M23.0547 8.14352H23.801V20.7372H23.0547V8.14352Z" fill="#0B0B0B"/>
<path fill-rule="evenodd" clip-rule="evenodd" d="M24.9453 8.14352H25.363V20.7372H24.9453V8.14352Z" fill="#0B0B0B"/>
<path fill-rule="evenodd" clip-rule="evenodd" d="M25.5469 8.14352H25.8681V20.7372H25.5469V8.14352Z" fill="#0B0B0B"/>
<path fill-rule="evenodd" clip-rule="evenodd" d="M27.0703 8.14352H27.488V20.7372H27.0703V8.14352Z" fill="#0B0B0B"/>
<path fill-rule="evenodd" clip-rule="evenodd" d="M26.1484 8.14352H26.8948V20.7372H26.1484V8.14352Z" fill="#0B0B0B"/>
<path fill-rule="evenodd" clip-rule="evenodd" d="M27.8516 8.14352H29.1959V20.7372H27.8516V8.14352Z" fill="#0B0B0B"/>
<path fill-rule="evenodd" clip-rule="evenodd" d="M29.6172 8.14352H30.0324V20.7372H29.6172V8.14352Z" fill="#0B0B0B"/>
<path fill-rule="evenodd" clip-rule="evenodd" d="M30.3984 8.14352H31.1448V20.7372H30.3984V8.14352Z" fill="#0B0B0B"/>
<path fill-rule="evenodd" clip-rule="evenodd" d="M31.8672 8.14352H32.2848V20.7372H31.8672V8.14352Z" fill="#0B0B0B"/>
<path fill-rule="evenodd" clip-rule="evenodd" d="M32.4609 8.14352H32.7822V20.7372H32.4609V8.14352Z" fill="#0B0B0B"/>
<path fill-rule="evenodd" clip-rule="evenodd" d="M33.3125 8.14352H34.0588V20.7372H33.3125V8.14352Z" fill="#0B0B0B"/>
<path fill-rule="evenodd" clip-rule="evenodd" d="M7.34375 20.7642H33.1218V13.7062H7.34375V20.7642Z" fill="white"/>
<path d="M7.82812 20.495V14.1092H10.2253C10.7121 14.1092 11.1026 14.1734 11.3991 14.302C11.6932 14.4305 11.9231 14.6306 12.0911 14.9C12.2592 15.1669 12.3432 15.4486 12.3432 15.7427C12.3432 16.0146 12.269 16.2716 12.1208 16.5138C11.9725 16.7535 11.7501 16.9487 11.451 17.097C11.8366 17.2107 12.1356 17.4034 12.3407 17.6777C12.5483 17.9496 12.6521 18.2733 12.6521 18.644C12.6521 18.943 12.5878 19.2223 12.4618 19.4793C12.3358 19.7363 12.1801 19.934 11.9947 20.0749C11.8094 20.2133 11.5746 20.3195 11.2953 20.3912C11.0136 20.4629 10.6701 20.4975 10.2648 20.4975H7.82812V20.495ZM8.67578 16.793H10.0572C10.4329 16.793 10.6998 16.7683 10.8629 16.7189C11.0779 16.6546 11.241 16.5484 11.3497 16.4001C11.4585 16.2518 11.5128 16.0665 11.5128 15.8416C11.5128 15.629 11.4634 15.4412 11.3596 15.2806C11.2583 15.1175 11.1125 15.0063 10.9247 14.947C10.7368 14.8876 10.4106 14.858 9.95344 14.858H8.67578V16.793ZM8.67578 19.7462H10.2673C10.5416 19.7462 10.7319 19.7363 10.8431 19.7141C11.0359 19.6795 11.199 19.6226 11.3299 19.5411C11.4609 19.4595 11.5672 19.3409 11.6537 19.1852C11.7377 19.0295 11.7797 18.8491 11.7797 18.6465C11.7797 18.4068 11.7179 18.2017 11.5944 18.0237C11.4733 17.8458 11.3028 17.7247 11.0853 17.653C10.8703 17.5814 10.5564 17.5468 10.1511 17.5468H8.67331V19.7462H8.67578Z" fill="#0B0B0B"/>
<path d="M13.4219 18.1796C13.4219 17.3245 13.6591 16.6919 14.1361 16.2792C14.534 15.9381 15.0183 15.7676 15.5917 15.7676C16.2268 15.7676 16.7458 15.9752 17.1511 16.3928C17.5539 16.808 17.7565 17.3838 17.7565 18.1153C17.7565 18.7109 17.6676 19.1755 17.4896 19.5166C17.3117 19.8576 17.0522 20.122 16.7087 20.3098C16.3677 20.4977 15.9945 20.5916 15.5917 20.5916C14.9442 20.5916 14.4203 20.384 14.0199 19.9713C13.622 19.5561 13.4219 18.958 13.4219 18.1796ZM14.225 18.1821C14.225 18.7727 14.3536 19.2175 14.613 19.5091C14.8725 19.8032 15.1987 19.9515 15.5917 19.9515C15.9821 19.9515 16.3059 19.8032 16.5654 19.5091C16.8248 19.2126 16.9534 18.7628 16.9534 18.1573C16.9534 17.5865 16.8224 17.154 16.5629 16.8624C16.3034 16.5683 15.9797 16.42 15.5917 16.42C15.1987 16.42 14.8725 16.5658 14.613 16.8574C14.3536 17.1491 14.225 17.5914 14.225 18.1821Z" fill="#0B0B0B"/>
<path d="M18.6562 20.495V14.1092H19.4421V20.495H18.6562Z" fill="#0B0B0B"/>
<path d="M23.8084 18.9951L24.619 19.1014C24.493 19.5734 24.2557 19.9391 23.9122 20.2011C23.5662 20.4606 23.1263 20.5916 22.5901 20.5916C21.9154 20.5916 21.3791 20.384 20.9837 19.9663C20.5883 19.5512 20.3906 18.9679 20.3906 18.2167C20.3906 17.4407 20.5908 16.8377 20.9887 16.4101C21.389 15.9801 21.908 15.7676 22.5456 15.7676C23.1634 15.7676 23.6676 15.9777 24.058 16.3978C24.4485 16.8179 24.6462 17.411 24.6462 18.1722C24.6462 18.2191 24.6437 18.2883 24.6412 18.3798H21.1938C21.2235 18.8864 21.3668 19.2768 21.6238 19.5462C21.8808 19.8156 22.2046 19.9515 22.5876 19.9515C22.8743 19.9515 23.1189 19.8749 23.3216 19.7241C23.5292 19.5709 23.6898 19.3287 23.8084 18.9951ZM21.2383 17.7397H23.8158C23.7812 17.3492 23.6824 17.0601 23.5193 16.8649C23.2722 16.5634 22.9459 16.4126 22.5505 16.4126C22.1897 16.4126 21.8882 16.5337 21.6436 16.7734C21.4014 17.0107 21.2655 17.3344 21.2383 17.7397Z" fill="#0B0B0B"/>
<path d="M27.3219 19.793L27.4282 20.485C27.2082 20.5319 27.0105 20.5542 26.8375 20.5542C26.5533 20.5542 26.3334 20.5097 26.1752 20.4183C26.0195 20.3268 25.9083 20.2107 25.8441 20.0624C25.7798 19.9141 25.7502 19.6052 25.7502 19.1357V16.4716H25.1719V15.8661H25.7526V14.7219L26.5385 14.2499V15.8661H27.3219V16.4716H26.536V19.1826C26.536 19.4075 26.5484 19.5508 26.578 19.6151C26.6052 19.6793 26.6497 19.7288 26.7115 19.7683C26.7733 19.8054 26.8622 19.8251 26.9784 19.8251C27.0649 19.8251 27.181 19.8153 27.3219 19.793Z" fill="#0B0B0B"/>
<path d="M27.8047 18.1796C27.8047 17.3245 28.0419 16.6919 28.5189 16.2792C28.9168 15.9381 29.4011 15.7676 29.9745 15.7676C30.6096 15.7676 31.1286 15.9752 31.5339 16.3928C31.9367 16.808 32.1393 17.3838 32.1393 18.1153C32.1393 18.7109 32.0504 19.1755 31.8724 19.5166C31.6945 19.8576 31.435 20.122 31.0915 20.3098C30.7505 20.4977 30.3773 20.5916 29.9745 20.5916C29.327 20.5916 28.8031 20.384 28.4027 19.9713C28.0049 19.5561 27.8047 18.958 27.8047 18.1796ZM28.6079 18.1821C28.6079 18.7727 28.7364 19.2175 28.9958 19.5091C29.2553 19.8032 29.5815 19.9515 29.9745 19.9515C30.3649 19.9515 30.6887 19.8032 30.9482 19.5091C31.2077 19.2126 31.3362 18.7628 31.3362 18.1573C31.3362 17.5865 31.2052 17.154 30.9457 16.8624C30.6862 16.5683 30.3625 16.42 29.9745 16.42C29.5815 16.42 29.2553 16.5658 28.9958 16.8574C28.7364 17.1491 28.6079 17.5914 28.6079 18.1821Z" fill="#0B0B0B"/>
</svg>
