<svg width="57" height="16" viewBox="0 0 57 16" fill="none" xmlns="http://www.w3.org/2000/svg">
<path d="M36.4659 7.70288L32.8504 9.72872L32.8359 0.0321669C32.8359 0.0236359 32.8393 0.0154541 32.8453 0.00942179C32.8513 0.00338944 32.8595 0 32.868 0H36.4094C36.4231 0 36.4362 0.00544894 36.4458 0.015148C36.4555 0.0248471 36.4609 0.0380022 36.4609 0.0517188L36.4659 7.70288Z" fill="#101010"/>
<path d="M27.5965 14.514C27.5965 14.4652 27.5791 14.4581 27.5443 14.4925C26.6073 15.4167 25.4791 15.9156 24.16 15.9892C22.9385 16.0573 21.8284 15.8065 20.8297 15.2368C20.4758 15.0349 20.1398 14.7856 19.8218 14.4887C18.6343 13.3791 17.9596 11.9714 17.7979 10.2655C17.728 9.52757 17.7495 8.82349 17.8626 8.15325C18.1282 6.57774 18.8515 5.3016 20.0323 4.32484C21.0729 3.46413 22.3022 3.02788 23.7202 3.01611C25.2148 3.00308 26.4805 3.51816 27.5173 4.56135C27.5726 4.61686 27.6003 4.60529 27.6003 4.52666V3.4286C27.6003 3.41438 27.6059 3.40074 27.6159 3.39069C27.6259 3.38063 27.6395 3.37499 27.6537 3.37499L30.8539 3.37877C30.8732 3.37877 30.8918 3.38654 30.9054 3.40038C30.9191 3.41422 30.9268 3.43299 30.9268 3.45256L30.9148 15.6575C30.9148 15.666 30.9115 15.6742 30.9055 15.6802C30.8994 15.6862 30.8913 15.6896 30.8828 15.6896L27.6279 15.7016C27.6206 15.7016 27.6135 15.6987 27.6084 15.6935C27.6032 15.6883 27.6003 15.6812 27.6003 15.6739L27.5965 14.514ZM22.8367 12.3645C23.2686 12.6231 23.7516 12.7606 24.2857 12.777C25.3091 12.809 26.1462 12.4394 26.7972 11.6682C27.3937 10.9614 27.6562 10.1469 27.5846 9.22483C27.5108 8.27246 27.0986 7.49836 26.348 6.90255C25.9584 6.59308 25.5292 6.39546 25.0605 6.30968C24.6612 6.23652 24.2597 6.23169 23.8559 6.29518C23.4437 6.36035 23.0621 6.51046 22.711 6.74551C21.9055 7.28455 21.4413 8.04792 21.3186 9.03562C21.2013 9.98126 21.402 10.8075 21.9206 11.5143C22.1836 11.873 22.489 12.1564 22.8367 12.3645Z" fill="#101010"/>
<path d="M47.7523 10.7834C47.8465 11.0899 47.9842 11.3861 48.1651 11.672C48.5786 12.325 49.1753 12.739 49.9553 12.9139C50.4584 13.0266 50.9349 13.0705 51.3848 13.0457C52.6616 12.9742 53.8302 12.5807 54.8904 11.865C54.8938 11.8627 54.8976 11.8611 54.9016 11.8603C54.9056 11.8596 54.9098 11.8597 54.9138 11.8606C54.9178 11.8616 54.9216 11.8633 54.9249 11.8658C54.9283 11.8683 54.9311 11.8715 54.9331 11.8751L56.286 14.2422C56.2903 14.2498 56.2917 14.2588 56.2898 14.2674C56.288 14.276 56.283 14.2836 56.2759 14.2888C54.7553 15.4098 53.0045 15.9712 51.0235 15.9728C50.1731 15.9737 49.4327 15.8999 48.8023 15.7515C47.7278 15.4983 46.8098 14.9952 46.0482 14.2422C45.7587 13.9562 45.4952 13.6306 45.2577 13.2652C44.5992 12.2531 44.2473 11.1374 44.2021 9.91802C44.1866 9.49123 44.1977 9.07097 44.2354 8.65722C44.3472 7.44037 44.7733 6.36396 45.5135 5.42798C46.5993 4.05513 48.0131 3.27726 49.7549 3.09435C50.4167 3.02497 51.0958 3.03675 51.792 3.12967C52.4932 3.22344 53.1536 3.428 53.7732 3.74335C54.1469 3.93341 54.4973 4.16215 54.8244 4.42957C55.8604 5.27682 56.5034 6.36648 56.7535 7.69854C56.9282 8.63158 56.9351 9.63272 56.7742 10.702C56.7729 10.711 56.7684 10.7192 56.7617 10.7251C56.7551 10.731 56.7465 10.7342 56.7378 10.7342L47.7856 10.7379C47.7801 10.738 47.7747 10.7393 47.7698 10.7419C47.7648 10.7444 47.7606 10.748 47.7574 10.7524C47.7541 10.7568 47.752 10.7619 47.7511 10.7673C47.7502 10.7727 47.7506 10.7782 47.7523 10.7834ZM49.1975 8.20626C50.5757 8.21804 51.9891 8.22077 53.4377 8.21446C53.444 8.21441 53.4502 8.21295 53.4559 8.21019C53.4616 8.20742 53.4666 8.20342 53.4706 8.19847C53.4746 8.19352 53.4774 8.18775 53.4789 8.18157C53.4803 8.17539 53.4804 8.16896 53.4791 8.16275C53.3882 7.75026 53.2203 7.37709 52.9752 7.04323C52.7268 6.70433 52.4285 6.44111 52.0804 6.25358C51.7252 6.06227 51.331 5.954 50.8978 5.92877C49.9934 5.87621 49.2306 6.13207 48.6094 6.69634C48.3953 6.8906 48.2167 7.11324 48.0734 7.36427C47.9352 7.60688 47.8218 7.87262 47.7334 8.16148C47.7316 8.16788 47.7312 8.17463 47.7324 8.18119C47.7336 8.18774 47.7364 8.19392 47.7404 8.19921C47.7445 8.2045 47.7497 8.20875 47.7557 8.21163C47.7617 8.2145 47.7683 8.2159 47.7749 8.21573C48.2638 8.20564 48.738 8.20248 49.1975 8.20626Z" fill="#101010"/>
<path d="M8.94613 9.63266C8.92937 9.57212 8.91241 9.57212 8.89523 9.63266L7.19113 15.6452C7.18864 15.6543 7.18341 15.6624 7.17626 15.6681C7.1691 15.6738 7.16041 15.6768 7.15155 15.6768L3.49263 15.6919C3.48083 15.6919 3.46937 15.688 3.45997 15.681C3.45057 15.6739 3.44373 15.664 3.44048 15.6528C2.84144 13.5168 2.2487 11.4001 1.66223 9.3028C1.63961 9.22081 1.61322 9.14008 1.58306 9.06061C1.54494 8.96138 1.5175 8.8817 1.50074 8.82157C0.989261 7.01353 0.489926 5.22567 0.00274054 3.458C-0.000446977 3.44611 -0.000859683 3.43364 0.00153246 3.42157C0.0039246 3.40949 0.00905743 3.39813 0.0165338 3.38837C0.0240101 3.37861 0.0336279 3.37071 0.0446399 3.36528C0.0556519 3.35986 0.0677621 3.35705 0.080029 3.35709L3.40969 3.3697C3.41551 3.36974 3.42116 3.37167 3.4258 3.37519C3.43044 3.37871 3.43382 3.38364 3.43545 3.38925L5.29413 9.96505C5.30963 10.0197 5.32512 10.0197 5.34062 9.96505L7.18925 3.39241C7.19182 3.38366 7.19719 3.37599 7.20456 3.37053C7.21192 3.36508 7.22087 3.36213 7.23009 3.36213H10.5987C10.6079 3.36217 10.6168 3.36514 10.6241 3.37061C10.6314 3.37608 10.6366 3.38374 10.6389 3.39241L12.4882 9.94991C12.5053 10.0096 12.5223 10.0094 12.5391 9.94928C13.0707 8.0542 13.6087 6.15135 14.1533 4.24071C14.2765 3.80805 14.3607 3.52738 14.4059 3.39871C14.4088 3.39023 14.4145 3.38288 14.4222 3.37767C14.4298 3.37247 14.4391 3.36968 14.4486 3.3697L17.8248 3.36213C17.8285 3.36212 17.8321 3.36295 17.8354 3.36455C17.8388 3.36615 17.8417 3.36848 17.8439 3.37135C17.8462 3.37422 17.8477 3.37756 17.8484 3.3811C17.8491 3.38465 17.849 3.3883 17.848 3.39178L14.3852 15.6679C14.3835 15.6737 14.38 15.6789 14.3751 15.6825C14.3703 15.6861 14.3643 15.6881 14.3582 15.6881L10.693 15.7052C10.679 15.7051 10.6655 15.7006 10.6544 15.6922C10.6433 15.6837 10.6352 15.6719 10.6314 15.6585L8.94613 9.63266Z" fill="#101010"/>
<path d="M40.0852 9.9059C38.8972 10.5623 37.7135 11.2224 36.5343 11.8863C36.4991 11.9061 36.4899 11.9275 36.5067 11.9507C36.4899 11.9523 36.4751 11.9584 36.4621 11.969C36.4642 11.9425 36.4552 11.9349 36.435 11.9462C35.2475 12.6266 34.0498 13.289 32.8421 13.9336C32.8287 12.6037 32.8249 11.2813 32.8308 9.96644C32.8312 9.85334 32.8373 9.7745 32.849 9.72993L36.4646 7.70408L43.313 3.87062C43.3158 3.86907 43.319 3.86829 43.3222 3.86835C43.3254 3.86841 43.3285 3.86932 43.3313 3.87099C43.334 3.87265 43.3363 3.87501 43.3378 3.87782C43.3393 3.88064 43.3401 3.88381 43.3401 3.88702V7.97466C43.34 8.00447 43.3321 8.03374 43.3171 8.05946C43.3021 8.08518 43.2805 8.10641 43.2546 8.12098L40.0852 9.9059Z" fill="#7B2AE6"/>
<path d="M40.0866 9.90601L43.2315 11.689C43.2399 11.6938 43.2469 11.7007 43.2517 11.709C43.2566 11.7173 43.2591 11.7267 43.2592 11.7363L43.2629 15.7249C43.2629 15.7289 43.2619 15.7328 43.2599 15.7363C43.2579 15.7397 43.255 15.7425 43.2516 15.7445C43.2481 15.7465 43.2442 15.7475 43.2403 15.7475C43.2363 15.7475 43.2324 15.7465 43.229 15.7445L36.5081 11.9508C36.4914 11.9276 36.5006 11.9062 36.5358 11.8864C37.715 11.2225 38.8986 10.5624 40.0866 9.90601Z" fill="#101010"/>
<path d="M36.4637 11.9671L36.4461 15.6568C36.4459 15.6652 36.4425 15.6732 36.4365 15.6791C36.4305 15.685 36.4225 15.6883 36.4141 15.6883L32.884 15.6846C32.8755 15.6846 32.8673 15.6812 32.8613 15.6753C32.8553 15.6694 32.8519 15.6614 32.8519 15.653L32.8438 13.9318C34.0514 13.2872 35.2491 12.6248 36.4367 11.9444C36.4568 11.9331 36.4658 11.9407 36.4637 11.9671Z" fill="#101010"/>
</svg>
