<svg width="68" height="15" viewBox="0 0 68 15" fill="none" xmlns="http://www.w3.org/2000/svg">
<g clip-path="url(#clip0_11272_63051)">
<path d="M21.9462 14.9867C21.1386 14.9867 20.4431 14.8519 19.86 14.5822C19.2768 14.3126 18.7889 13.9532 18.3964 13.5036C18.0036 13.0544 17.7093 12.5459 17.5132 11.9785C17.3168 11.4112 17.2188 10.8241 17.2188 10.2173V9.89713C17.2188 9.26802 17.3197 8.66418 17.5216 8.08544C17.7235 7.50688 18.0234 6.99292 18.4217 6.54339C18.8196 6.09416 19.3134 5.74024 19.9021 5.48163C20.4911 5.22333 21.1666 5.09406 21.9294 5.09406C22.7593 5.09406 23.494 5.25415 24.1333 5.57435C24.7725 5.89455 25.2828 6.34119 25.6642 6.9142C26.0453 7.48721 26.2585 8.15022 26.3034 8.90282H23.6621C23.6172 8.47597 23.4489 8.11916 23.1575 7.83262C22.8657 7.54615 22.4564 7.40288 21.9293 7.40288C21.4806 7.40288 21.1076 7.51538 20.8105 7.73997C20.5133 7.96485 20.2916 8.2766 20.1461 8.67528C20.0002 9.07426 19.9273 9.53772 19.9273 10.0657C19.9273 10.5602 19.9946 11.0068 20.1292 11.4055C20.2639 11.8044 20.4796 12.1133 20.777 12.3324C21.074 12.5515 21.4638 12.661 21.9462 12.661C22.3049 12.661 22.6106 12.5965 22.863 12.4672C23.1154 12.3382 23.3144 12.1584 23.4603 11.9279C23.6058 11.6978 23.7013 11.4308 23.7463 11.1274H26.3707C26.3371 11.8915 26.1239 12.5628 25.7315 13.1413C25.3388 13.7201 24.8172 14.1722 24.1669 14.498C23.5162 14.8236 22.776 14.9867 21.9462 14.9867Z" fill="black"/>
<path d="M31.901 14.9866C31.0934 14.9866 30.3756 14.8602 29.7476 14.6074C29.1193 14.3547 28.5868 14.0065 28.1493 13.5626C27.712 13.1189 27.3811 12.6133 27.1568 12.0458C26.9323 11.4786 26.8203 10.8803 26.8203 10.251V9.86341C26.8203 9.22302 26.9381 8.61363 27.1737 8.03483C27.4092 7.45632 27.7482 6.9478 28.1914 6.50967C28.6343 6.07154 29.1698 5.726 29.7981 5.47319C30.4261 5.22043 31.1271 5.09399 31.901 5.09399C32.6972 5.09399 33.4067 5.22037 34.0291 5.47319C34.6516 5.726 35.1815 6.07154 35.6189 6.50967C36.0563 6.9478 36.3928 7.45632 36.6283 8.03483C36.8639 8.61363 36.9817 9.22296 36.9817 9.86341V10.251C36.9817 10.8803 36.8694 11.4786 36.6452 12.0458C36.4207 12.6133 36.0927 13.1189 35.661 13.5626C35.2292 14.0065 34.6992 14.3547 34.0712 14.6074C33.4429 14.8602 32.7195 14.9866 31.901 14.9866ZM31.901 12.6946C32.4281 12.6946 32.8654 12.5824 33.2132 12.3575C33.5606 12.1329 33.8244 11.8183 34.0039 11.4138C34.1832 11.0094 34.2731 10.5601 34.2731 10.0656C34.2731 9.5376 34.1806 9.07414 33.9955 8.67516C33.8105 8.27648 33.5413 7.96183 33.188 7.7314C32.8347 7.50126 32.4057 7.38593 31.901 7.38593C31.4073 7.38593 30.9812 7.50126 30.6224 7.7314C30.2633 7.96183 29.9915 8.27648 29.8065 8.67516C29.6214 9.07414 29.5289 9.5376 29.5289 10.0656C29.5289 10.5601 29.6185 11.0093 29.7981 11.4138C29.9774 11.8183 30.2465 12.1329 30.6056 12.3575C30.9643 12.5824 31.3962 12.6946 31.901 12.6946Z" fill="black"/>
<path d="M37.7656 14.6174V5.41334H39.9117V9.37712H39.7609C39.7609 8.43661 39.8782 7.65301 40.1129 7.02578C40.3476 6.3988 40.6997 5.92565 41.1692 5.60657C41.6386 5.28749 42.2142 5.12793 42.896 5.12793H43.0135C43.7064 5.12793 44.2848 5.28749 44.7488 5.60657C45.2125 5.92565 45.5646 6.3988 45.8051 7.02578C46.0454 7.65301 46.1656 8.43661 46.1656 9.37712H45.5117C45.5117 8.43661 45.6317 7.65301 45.8722 7.02578C46.1125 6.3988 46.4674 5.92565 46.9368 5.60657C47.4063 5.28749 47.9818 5.12793 48.6637 5.12793H48.7811C49.474 5.12793 50.058 5.28749 50.5333 5.60657C51.0082 5.92565 51.3687 6.3988 51.6146 7.02578C51.8603 7.65301 51.9835 8.43661 51.9835 9.37712V14.6174H49.2841V9.22594C49.2841 8.73336 49.1556 8.33025 48.8985 8.01667C48.6413 7.70332 48.2724 7.54636 47.7919 7.54636C47.3111 7.54636 46.9309 7.70592 46.6517 8.02506C46.3722 8.34419 46.2326 8.76147 46.2326 9.27637V14.6174H43.5332V9.22594C43.5332 8.73336 43.4016 8.33025 43.1392 8.01667C42.8764 7.70332 42.5104 7.54636 42.041 7.54636C41.549 7.54636 41.1633 7.70592 40.8841 8.02506C40.6045 8.34419 40.465 8.76147 40.465 9.27637V14.6174H37.7656Z" fill="black"/>
<path d="M53.2422 14.6174V5.41334H55.3882V9.37712H55.2374C55.2374 8.43661 55.3547 7.65301 55.5894 7.02578C55.8241 6.3988 56.1762 5.92565 56.6457 5.60657C57.1151 5.28749 57.6906 5.12793 58.3725 5.12793H58.49C59.1828 5.12793 59.7612 5.28749 60.2251 5.60657C60.6891 5.92565 61.041 6.3988 61.2815 7.02578C61.5221 7.65301 61.6423 8.43661 61.6423 9.37712H60.9879C60.9879 8.43661 61.1082 7.65301 61.3487 7.02578C61.5887 6.3988 61.9441 5.92565 62.4134 5.60657C62.8827 5.28749 63.4586 5.12793 64.1401 5.12793H64.2574C64.9507 5.12793 65.5343 5.28749 66.0095 5.60657C66.4846 5.92565 66.8454 6.3988 67.0912 7.02578C67.3371 7.65301 67.4597 8.43661 67.4597 9.37712V14.6174H64.7609V9.22594C64.7609 8.73336 64.6318 8.33025 64.3747 8.01667C64.1177 7.70332 63.7487 7.54636 63.2682 7.54636C62.7877 7.54636 62.4075 7.70592 62.1281 8.02506C61.8486 8.34419 61.7089 8.76147 61.7089 9.27637V14.6174H59.0101V9.22594C59.0101 8.73336 58.8782 8.33025 58.6158 8.01667C58.353 7.70332 57.9871 7.54636 57.5176 7.54636C57.0256 7.54636 56.6399 7.70592 56.3607 8.02506C56.0811 8.34419 55.9416 8.76147 55.9416 9.27637V14.6174H53.2422Z" fill="black"/>
<path d="M9.89364 3.93053V11.1518C9.89364 11.7626 9.39756 12.2595 8.78788 12.2595C8.1782 12.2595 7.68218 11.7626 7.68218 11.1518V4.86171L4.96633 6.00532V11.1519C4.96633 11.7627 4.47035 12.2596 3.86061 12.2596C3.25092 12.2596 2.75497 11.7627 2.75497 11.1519V6.9365L0.0390625 8.0801V11.1519C0.0390625 13.2628 1.75343 14.9802 3.86061 14.9802C4.79877 14.9802 5.65846 14.6392 6.32428 14.0753C6.99008 14.6392 7.84978 14.9802 8.78794 14.9802C10.8952 14.9802 12.6096 13.2628 12.6096 11.1519V2.78693L9.89364 3.93053Z" fill="black"/>
<path d="M16.33 0H12.6094V2.78539H14.1206C15.3408 2.78539 16.33 1.79451 16.33 0.572187L16.33 0Z" fill="url(#paint0_linear_11272_63051)"/>
<path d="M15.8875 4.40649C15.4535 5.01571 14.7425 5.41332 13.9384 5.41332H13.6328V14.6813H16.3322V4.40649H15.8875Z" fill="black"/>
</g>
<defs>
<linearGradient id="paint0_linear_11272_63051" x1="12.6094" y1="1.39269" x2="16.33" y2="1.39269" gradientUnits="userSpaceOnUse">
<stop offset="0.000240844" stop-color="#FF0074"/>
<stop offset="1" stop-color="#FF0024"/>
</linearGradient>
<clipPath id="clip0_11272_63051">
<rect width="67.5" height="15" fill="white"/>
</clipPath>
</defs>
</svg>
