<svg width="8" height="6" viewBox="0 0 8 6" fill="none" xmlns="http://www.w3.org/2000/svg">
<g clip-path="url(#clip0_13029_248)">
<path d="M4.00223 3.14279L6.78795 0.357074C6.9189 0.226121 7.08556 0.160645 7.28795 0.160645C7.49033 0.160645 7.65699 0.226121 7.78795 0.357074C7.9189 0.488027 7.98437 0.654691 7.98437 0.857074C7.98437 1.05946 7.9189 1.22612 7.78795 1.35707L4.50223 4.64279C4.35937 4.78565 4.19271 4.85707 4.00223 4.85707C3.81176 4.85707 3.64509 4.78565 3.50223 4.64279L0.216518 1.35707C0.0855469 1.22612 0.0200615 1.05946 0.0200615 0.857074C0.0200615 0.654691 0.085547 0.488026 0.216518 0.357073C0.34749 0.226121 0.514118 0.160645 0.716518 0.160645C0.918918 0.160645 1.08555 0.226121 1.21652 0.357073L4.00223 3.14279Z" fill="#404042"/>
</g>
<defs>
<clipPath id="clip0_13029_248">
<rect width="5.14286" height="8" fill="white" transform="translate(8) rotate(90)"/>
</clipPath>
</defs>
</svg>
