<svg width="7" height="11" viewBox="0 0 7 11" fill="none" xmlns="http://www.w3.org/2000/svg">
<g clip-path="url(#clip0_13029_24)">
<path d="M3.96846 5.05066L0.451142 1.53335C0.285797 1.368 0.203126 1.15757 0.203126 0.902034C0.203126 0.646503 0.285797 0.436065 0.451142 0.270721C0.616486 0.105377 0.826921 0.0227051 1.08245 0.0227051C1.33799 0.0227051 1.54842 0.105377 1.71377 0.270721L5.8624 4.41935C6.04277 4.59973 6.13296 4.81017 6.13296 5.05066C6.13296 5.29116 6.04277 5.5016 5.8624 5.68198L1.71377 9.83061C1.54842 9.99597 1.33799 10.0787 1.08245 10.0787C0.826921 10.0787 0.616485 9.99597 0.451141 9.83061C0.285797 9.66524 0.203125 9.45485 0.203125 9.19929C0.203125 8.94374 0.285797 8.73335 0.451141 8.56798L3.96846 5.05066Z" fill="#404042"/>
</g>
<defs>
<clipPath id="clip0_13029_24">
<rect width="6.49351" height="10.101" fill="white"/>
</clipPath>
</defs>
</svg>
