<svg width="38" height="32" viewBox="0 0 38 32" fill="none" xmlns="http://www.w3.org/2000/svg">
<path d="M17.0162 21.6011L23.6337 14.9838L9.12698 0.522682C8.77742 0.174232 8.37418 0 7.91727 0C7.46035 0 7.05414 0.179379 6.69862 0.538138L2.56576 4.70853C2.21024 5.06729 2.03249 5.47777 2.03249 5.93994C2.03249 6.40209 2.2058 6.80123 2.55243 7.13737L17.0162 21.6011ZM17.0162 16.7798L6.14475 5.90842L7.94091 4.11226L18.8124 14.9838L17.0162 16.7798ZM19.285 32L15.8818 28.5968H0V32H19.285ZM30.6292 32C31.981 32 33.2812 31.7372 34.5302 31.2117C35.779 30.6862 36.8736 29.9564 37.8139 29.0222L26.0915 17.347L20.7976 22.6411C20.4509 22.9562 20.1989 23.3264 20.0414 23.7518C19.8837 24.1772 19.805 24.611 19.805 25.0528C19.805 25.4948 19.8837 25.9202 20.0414 26.3291C20.1989 26.738 20.4509 27.1156 20.7976 27.4623L21.9793 28.6912C23.0507 29.7627 24.2816 30.582 25.6719 31.1492C27.0623 31.7164 28.5098 32 30.0148 32H30.6292ZM30.6292 28.5968H30.062C28.9907 28.5968 27.9664 28.3998 26.9897 28.0059C26.0128 27.6119 25.1463 27.0369 24.3899 26.2806L23.2083 25.0517L26.0915 22.1211L32.3308 28.3604C32.0472 28.4235 31.7636 28.4785 31.48 28.5259C31.1964 28.5731 30.9128 28.5968 30.6292 28.5968Z" fill="#056939"/>
</svg>
