<svg width="32" height="32" viewBox="0 0 32 32" fill="none" xmlns="http://www.w3.org/2000/svg">
<g clip-path="url(#clip0_11272_62608)">
<path d="M18.1704 31.7553C15.5006 31.7553 13.2263 30.8119 11.3475 28.9251C9.46875 27.0384 8.52936 24.7544 8.52936 22.0732V20.8424C6.20458 20.5416 4.24219 19.5228 2.64219 17.7861C1.04219 16.0493 0.242188 13.9774 0.242188 11.5706V3.69371C0.242188 3.27525 0.383726 2.92448 0.666803 2.6414C0.94988 2.35833 1.30065 2.21679 1.71911 2.21679H5.16527V1.72448C5.16527 1.30602 5.30597 0.95525 5.58738 0.672173C5.86881 0.389096 6.21754 0.247559 6.63354 0.247559C7.04956 0.247559 7.40115 0.389096 7.68834 0.672173C7.97552 0.95525 8.11911 1.30602 8.11911 1.72448V5.66294C8.11911 6.0814 7.97841 6.43217 7.69699 6.71525C7.41557 6.99833 7.06684 7.13986 6.65084 7.13986C6.23482 7.13986 5.88321 6.99833 5.59604 6.71525C5.30886 6.43217 5.16527 6.0814 5.16527 5.66294V5.17063H3.19604V11.5895C3.19604 13.3547 3.81825 14.8595 5.06271 16.104C6.30715 17.3484 7.81825 17.9707 9.59604 17.9707C11.3738 17.9707 12.8849 17.3484 14.1294 16.104C15.3739 14.8595 15.996 13.3547 15.996 11.5895V5.17063H14.0268V5.66294C14.0268 6.0814 13.8861 6.43217 13.6047 6.71525C13.3233 6.99833 12.9746 7.13986 12.5586 7.13986C12.1425 7.13986 11.7909 6.99833 11.5037 6.71525C11.2165 6.43217 11.073 6.0814 11.073 5.66294V1.72448C11.073 1.30602 11.2137 0.95525 11.4951 0.672173C11.7765 0.389096 12.1252 0.247559 12.5412 0.247559C12.9572 0.247559 13.3089 0.389096 13.596 0.672173C13.8833 0.95525 14.0268 1.30602 14.0268 1.72448V2.21679H17.4729C17.8914 2.21679 18.2422 2.35833 18.5252 2.6414C18.8083 2.92448 18.9499 3.27525 18.9499 3.69371V11.5706C18.9499 13.8776 18.2456 15.8834 16.8371 17.588C15.4285 19.2926 13.6439 20.3501 11.4832 20.7603V22.1142C11.4832 23.9832 12.1336 25.5718 13.4344 26.8801C14.7351 28.1883 16.3147 28.8424 18.1729 28.8424C20.0311 28.8424 21.6097 28.1883 22.9089 26.8801C24.208 25.5718 24.8575 23.9832 24.8575 22.1142V19.7091C23.8456 19.398 23.0183 18.8185 22.3756 17.9707C21.7327 17.1228 21.4114 16.1382 21.4114 15.0168C21.4114 13.6493 21.89 12.4869 22.8473 11.5296C23.8046 10.5723 24.967 10.0937 26.3345 10.0937C27.702 10.0937 28.8644 10.5723 29.8217 11.5296C30.7789 12.4869 31.2576 13.6493 31.2576 15.0168C31.2576 16.1382 30.9362 17.1228 30.2935 17.9707C29.6508 18.8185 28.8233 19.3958 27.8114 19.7024V22.0732C27.8114 24.7544 26.8721 27.0384 24.9933 28.9251C23.1145 30.8119 20.8402 31.7553 18.1704 31.7553ZM26.3345 16.9861C26.8925 16.9861 27.3602 16.7973 27.7376 16.4199C28.115 16.0424 28.3037 15.5747 28.3037 15.0168C28.3037 14.4588 28.115 13.9911 27.7376 13.6137C27.3602 13.2363 26.8925 13.0476 26.3345 13.0476C25.7766 13.0476 25.3089 13.2363 24.9314 13.6137C24.554 13.9911 24.3652 14.4588 24.3652 15.0168C24.3652 15.5747 24.554 16.0424 24.9314 16.4199C25.3089 16.7973 25.7766 16.9861 26.3345 16.9861Z" fill="#056939"/>
</g>
<defs>
<clipPath id="clip0_11272_62608">
<rect width="32" height="32" fill="white"/>
</clipPath>
</defs>
</svg>
