<svg width="33" height="24" viewBox="0 0 33 24" fill="none" xmlns="http://www.w3.org/2000/svg">
<path d="M21 24C17.65 24 14.8125 22.8375 12.4875 20.5125C10.1625 18.1875 9 15.35 9 12C9 8.64997 10.1625 5.8125 12.4875 3.4875C14.8125 1.1625 17.65 0 21 0C24.35 0 27.1875 1.1625 29.5125 3.4875C31.8375 5.8125 33 8.64997 33 12C33 15.35 31.8375 18.1875 29.5125 20.5125C27.1875 22.8375 24.35 24 21 24ZM20.991 21.75C23.697 21.75 26 20.803 27.9 18.909C29.8 17.0147 30.75 14.7148 30.75 12.009C30.75 9.303 29.803 6.99998 27.909 5.1C26.0147 3.20003 23.7148 2.25 21.009 2.25C18.303 2.25 16 3.19703 14.1 5.091C12.2 6.98528 11.25 9.28523 11.25 11.991C11.25 14.697 12.197 17 14.091 18.9C15.9853 20.8 18.2852 21.75 20.991 21.75ZM24.825 17.3625L26.4 15.7875L22.125 11.5125V6H19.875V12.45L24.825 17.3625ZM1.5 7.125V4.875H7.5V7.125H1.5ZM0 13.125V10.875H7.5V13.125H0ZM1.5 19.125V16.875H7.5V19.125H1.5Z" fill="#BE202E"/>
</svg>
