<svg width="28" height="28" viewBox="0 0 28 28" fill="none" xmlns="http://www.w3.org/2000/svg">
<circle cx="14" cy="14" r="14" fill="#BE202E"/>
<path fill-rule="evenodd" clip-rule="evenodd" d="M16.8056 21.638C14.9492 21.638 12.3084 21.5428 10.5472 21.5428C7.25343 21.5428 6.35938 19.561 6.35938 17.0411C6.35938 14.5213 6.40795 11.7343 6.40795 10.7791C6.40795 7.94813 7.6402 6.37621 10.6947 6.37621C11.8245 6.37621 16.0735 6.36523 17.5198 6.36523C20.2991 6.36523 21.6321 7.53274 21.6321 10.9511C21.6321 11.7947 21.5709 13.3739 21.5709 17.753C21.5709 20.5071 20.2919 21.638 16.8056 21.638ZM14.0173 10.0086C8.83287 10.0086 8.58283 18.0348 14.1055 18.0348C19.1496 18.0348 19.182 10.0086 14.0173 10.0086ZM18.7035 8.41843C17.205 8.41843 17.133 10.726 18.7305 10.726C20.1876 10.7223 20.1984 8.41843 18.7035 8.41843Z" fill="white"/>
</svg>
