<svg width="28" height="28" viewBox="0 0 28 28" fill="none" xmlns="http://www.w3.org/2000/svg">
<circle cx="14" cy="14" r="14" fill="#BE202E"/>
<g clip-path="url(#clip0_1_3)">
<path fill-rule="evenodd" clip-rule="evenodd" d="M9.5444 21.7919V11.2785H6.05031V21.7919H9.5444V21.7919ZM7.79772 9.84354C9.0158 9.84354 9.77456 9.03555 9.77456 8.02668C9.75153 6.99539 9.0158 6.21021 7.82056 6.21021C6.62513 6.21024 5.84375 6.99542 5.84375 8.02671C5.84375 9.03558 6.6021 9.84357 7.77472 9.84357L7.79772 9.84354ZM11.4782 21.7919C11.4782 21.7919 11.5241 12.2649 11.4782 11.2785H14.9729V12.8032H14.9497C15.4092 12.0857 16.237 11.0316 18.1219 11.0316C20.4215 11.0316 22.1451 12.5342 22.1451 15.7636V21.7919H18.6511V16.1675C18.6511 14.7543 18.1455 13.7899 16.8807 13.7899C15.9155 13.7899 15.3404 14.4401 15.0878 15.0685C14.9954 15.2922 14.9729 15.6064 14.9729 15.9206V21.7919H11.4782Z" fill="white"/>
</g>
<defs>
<clipPath id="clip0_1_3">
<rect width="16.3333" height="16.3333" fill="white" transform="translate(5.82812 5.83276)"/>
</clipPath>
</defs>
</svg>
