<svg width="27" height="27" viewBox="0 0 27 27" fill="none" xmlns="http://www.w3.org/2000/svg">
<path d="M10.15 2.48207C10.8842 1.85634 11.2513 1.54348 11.6352 1.36001C12.523 0.93566 13.5551 0.93566 14.4429 1.36001C14.8268 1.54348 15.1939 1.85634 15.9282 2.48207C16.2204 2.73111 16.3665 2.85564 16.5226 2.96023C16.8804 3.2 17.2821 3.36641 17.7045 3.44981C17.8889 3.48621 18.0802 3.50148 18.463 3.53202C19.4247 3.60876 19.9054 3.64713 20.3066 3.78882C21.2344 4.11655 21.9643 4.84636 22.2921 5.7742C22.4337 6.17536 22.472 6.65619 22.5489 7.61785C22.5793 8.0006 22.5946 8.19196 22.631 8.37627C22.7144 8.79877 22.8808 9.2005 23.1206 9.55824C23.2252 9.71429 23.3497 9.86041 23.5988 10.1526C24.2245 10.8869 24.5374 11.2541 24.7209 11.6379C25.1451 12.5257 25.1451 13.5578 24.7209 14.4456C24.5374 14.8295 24.2245 15.1966 23.5988 15.9309C23.3497 16.2231 23.2252 16.3692 23.1206 16.5253C22.8808 16.883 22.7144 17.2847 22.631 17.7073C22.5946 17.8916 22.5793 18.083 22.5489 18.4657C22.472 19.4273 22.4337 19.9081 22.2921 20.3093C21.9643 21.2371 21.2344 21.967 20.3066 22.2947C19.9054 22.4364 19.4247 22.4747 18.463 22.5515C18.0802 22.582 17.8889 22.5974 17.7045 22.6337C17.2821 22.7172 16.8804 22.8835 16.5226 23.1233C16.3665 23.2279 16.2204 23.3524 15.9282 23.6015C15.1939 24.2272 14.8268 24.5401 14.4429 24.7236C13.5551 25.1478 12.523 25.1478 11.6352 24.7236C11.2513 24.5401 10.8842 24.2272 10.15 23.6015C9.85772 23.3524 9.71159 23.2279 9.55554 23.1233C9.19782 22.8835 8.79608 22.7172 8.37359 22.6337C8.18928 22.5974 7.99791 22.582 7.61517 22.5515C6.65351 22.4747 6.17267 22.4364 5.77152 22.2947C4.84368 21.967 4.11386 21.2371 3.78614 20.3093C3.64445 19.9081 3.60607 19.4273 3.52934 18.4657C3.49879 18.083 3.48353 17.8916 3.44713 17.7073C3.36373 17.2847 3.19732 16.883 2.95755 16.5253C2.85296 16.3692 2.72843 16.2231 2.47939 15.9309C1.85366 15.1966 1.54079 14.8295 1.35732 14.4456C0.932977 13.5578 0.932977 12.5257 1.35732 11.6379C1.54079 11.254 1.85366 10.8869 2.47939 10.1526C2.72843 9.86041 2.85296 9.71429 2.95755 9.55824C3.19732 9.2005 3.36373 8.79877 3.44713 8.37627C3.48353 8.19196 3.49879 8.0006 3.52934 7.61785C3.60607 6.65619 3.64445 6.17536 3.78614 5.7742C4.11386 4.84636 4.84368 4.11655 5.77152 3.78882C6.17267 3.64713 6.65351 3.60876 7.61517 3.53202C7.99791 3.50148 8.18928 3.48621 8.37359 3.44981C8.79608 3.36641 9.19782 3.2 9.55554 2.96023C9.7116 2.85564 9.85772 2.73111 10.15 2.48207Z" stroke="#BE202E" stroke-width="2.08348"/>
<path d="M9.13281 16.9486L16.9459 9.1355" stroke="#BE202E" stroke-width="2.08348" stroke-linecap="round"/>
<path d="M17.5965 16.2975C17.5965 17.0167 17.0136 17.5997 16.2944 17.5997C15.5752 17.5997 14.9922 17.0167 14.9922 16.2975C14.9922 15.5783 15.5752 14.9954 16.2944 14.9954C17.0136 14.9954 17.5965 15.5783 17.5965 16.2975Z" fill="#BE202E"/>
<path d="M11.0887 9.7868C11.0887 10.506 10.5057 11.089 9.78655 11.089C9.06739 11.089 8.48438 10.506 8.48438 9.7868C8.48438 9.06763 9.06739 8.48462 9.78655 8.48462C10.5057 8.48462 11.0887 9.06763 11.0887 9.7868Z" fill="#BE202E"/>
</svg>
