<svg width="11" height="11" viewBox="0 0 11 11" fill="none" xmlns="http://www.w3.org/2000/svg">
<path d="M9.53059 10.166C8.43868 10.166 7.32562 9.9024 6.19135 9.37527C5.05708 8.84814 4.00519 8.09981 3.03567 7.13029C2.06615 6.16077 1.31782 5.10887 0.790686 3.97461C0.263561 2.84034 0 1.72728 0 0.635372C0 0.453797 0.0605242 0.30253 0.181575 0.181575C0.30253 0.0605242 0.453797 0 0.635372 0H2.61209C2.74388 0 2.85683 0.0470655 2.95095 0.141194C3.04507 0.235322 3.11098 0.352985 3.14862 0.494179L3.52886 2.26814C3.54834 2.40332 3.54631 2.52503 3.52279 2.63327C3.49926 2.7415 3.44874 2.83438 3.37129 2.91184L1.96259 4.33465C2.20734 4.74883 2.46618 5.13474 2.73916 5.49244C3.01215 5.85014 3.31334 6.18901 3.6428 6.50904C3.99107 6.86674 4.35817 7.19383 4.74411 7.49033C5.13005 7.78684 5.5348 8.04805 5.95838 8.27396L7.29972 6.89026C7.39384 6.78671 7.50282 6.71611 7.62659 6.67847C7.75036 6.64083 7.87204 6.6314 7.99157 6.65023L9.67178 7.01733C9.81297 7.05498 9.93064 7.13049 10.0248 7.24381C10.1189 7.35724 10.166 7.48412 10.166 7.62447V9.53059C10.166 9.71216 10.1054 9.86344 9.98438 9.98438C9.86344 10.1054 9.71216 10.166 9.53059 10.166ZM1.53901 3.55809L2.68268 2.4003L2.35794 0.847163H0.847163C0.86599 1.24251 0.929527 1.65903 1.03777 2.09673C1.14601 2.53443 1.3131 3.02155 1.53901 3.55809ZM6.74907 8.68342C7.13501 8.86226 7.55387 9.00817 8.00569 9.12112C8.45751 9.23408 8.89521 9.29996 9.31879 9.31879V7.80802L7.8645 7.51151L6.74907 8.68342Z" fill="#404042"/>
</svg>
