<svg width="25" height="25" viewBox="0 0 25 25" fill="none" xmlns="http://www.w3.org/2000/svg">
<path d="M23.5773 11.203L13.3117 0.937365C12.7297 0.354212 11.7849 0.354212 11.203 0.937365L0.937365 11.2083C0.354212 11.7903 0.354212 12.7351 0.937365 13.317L11.2083 23.5826C11.7903 24.1658 12.7351 24.1658 13.317 23.5826L23.5826 13.317C24.1658 12.7351 24.1658 11.7903 23.5826 11.2083L23.5773 11.203ZM12.1044 1.83881C12.187 1.76005 12.3169 1.76005 12.3995 1.83881L18.7546 8.19386H15.6739C15.5037 8.19401 15.3407 8.26171 15.2204 8.38206L12.252 11.3505L9.28351 8.38206C9.1633 8.26171 9.00022 8.19401 8.83011 8.19386H5.74936L12.1044 1.83881ZM1.77251 12.2573C1.77233 12.202 1.79427 12.1489 1.83346 12.1098L4.46616 9.47706H8.56385L11.3441 12.2573L8.56385 15.0376H4.46616L1.83346 12.4049C1.79428 12.3658 1.77233 12.3127 1.77251 12.2573ZM12.3995 22.6759C12.3169 22.7546 12.187 22.7546 12.1044 22.6759L5.74936 16.3208H8.83011C9.00022 16.3206 9.1633 16.253 9.28351 16.1326L12.252 13.1641L15.2204 16.1326C15.3407 16.253 15.5037 16.3206 15.6739 16.3208H18.7546L12.3995 22.6759ZM22.6705 12.4049L20.0378 15.0376H15.9401L13.1598 12.2573L15.9401 9.47706H20.0378L22.6705 12.1098C22.7493 12.1924 22.7493 12.3223 22.6705 12.4049Z" fill="#BE202E" stroke="#BE202E"/>
</svg>
