<svg width="35" height="32" viewBox="0 0 35 32" fill="none" xmlns="http://www.w3.org/2000/svg">
<path d="M0.52458 15.4992C0.17486 15.1495 0.00794 14.7521 0.0238351 14.307C0.0397301 13.8619 0.222545 13.4644 0.57228 13.1148L5.62741 8.0596L3.7675 6.19969L2.95677 7.01042C2.61764 7.36014 2.21492 7.535 1.74864 7.535C1.28234 7.535 0.874315 7.36014 0.52458 7.01042C0.17486 6.66069 0 6.25533 0 5.79433C0 5.33332 0.17486 4.92796 0.52458 4.57824L4.57824 0.52458C4.91737 0.17486 5.32008 0 5.78636 0C6.25267 0 6.66075 0.17486 7.01041 0.52458C7.36022 0.874315 7.53505 1.27967 7.53505 1.74067C7.53505 2.20169 7.36022 2.60705 7.01041 2.95677L6.19969 3.7675L8.05954 5.62741L13.1148 0.52458C13.4538 0.17486 13.8566 0 14.3229 0C14.7891 0 15.1972 0.166905 15.547 0.500745C15.8966 0.83457 16.0715 1.23464 16.0715 1.70096C16.0715 2.16724 15.8966 2.56995 15.547 2.90908L14.4024 4.05364L27.6601 17.3114C28.3278 17.9696 28.6616 18.7779 28.6616 19.7365C28.6616 20.695 28.3278 21.5081 27.6601 22.1758L26.1341 23.7019L34.4798 32H29.5678L23.7019 26.1341L22.2235 27.6125C21.5653 28.2802 20.757 28.614 19.7984 28.614C18.8399 28.614 18.0268 28.2802 17.3591 27.6125L4.10133 14.3546L2.95167 15.4992C2.61104 15.849 2.20651 16.0238 1.7381 16.0238C1.26973 16.0238 0.865215 15.849 0.52458 15.4992ZM6.53356 11.9224L19.7913 25.1803L25.2279 19.7436L22.462 16.9299L19.7913 19.5529C19.4416 19.9026 19.0442 20.0774 18.5991 20.0774C18.154 20.0774 17.7565 19.9026 17.4069 19.5529C17.0571 19.2137 16.8822 18.8111 16.8822 18.3447C16.8822 17.8784 17.0571 17.4704 17.4069 17.1207L20.0298 14.4977L17.216 11.6841L14.5931 14.307C14.2518 14.6568 13.8464 14.8316 13.377 14.8316C12.9076 14.8316 12.5023 14.6568 12.1609 14.307C11.8113 13.9891 11.6363 13.5911 11.6363 13.1132C11.6363 12.6352 11.8113 12.2224 12.1609 11.8748L14.7838 9.25189L11.9702 6.48583L6.53356 11.9224Z" fill="#056939"/>
</svg>
