<svg width="33" height="32" viewBox="0 0 33 32" fill="none" xmlns="http://www.w3.org/2000/svg">
<path d="M3.49207 32C2.06349 32 1.03175 31.3571 0.396832 30.0714C-0.238098 28.7857 -0.111111 27.5873 0.777776 26.4763L10.3492 14.8571V3.42858H8.64493C8.16207 3.42858 7.75393 3.26526 7.42064 2.93862C7.08731 2.61195 6.92064 2.20719 6.92064 1.72433C6.92064 1.24144 7.08493 0.83333 7.4135 0.500001C7.74207 0.166657 8.14921 0 8.63493 0H23.4921C23.9778 0 24.385 0.163314 24.7135 0.489943C25.0421 0.816615 25.2064 1.22137 25.2064 1.70423C25.2064 2.18713 25.0421 2.59523 24.7135 2.92858C24.385 3.2619 23.9778 3.42858 23.4921 3.42858H21.7778V14.8571L31.3504 26.466C32.2702 27.584 32.4127 28.7857 31.7778 30.0714C31.143 31.3571 30.0952 32 28.635 32H3.49207ZM8.34921 26.2857H23.7778L17.8731 19.0477H14.2539L8.34921 26.2857ZM3.49207 28.5714H28.635L18.3492 16V3.42858H13.7778V16L3.49207 28.5714Z" fill="#056939"/>
</svg>
