<svg width="11" height="11" viewBox="0 0 11 11" fill="none" xmlns="http://www.w3.org/2000/svg">
<path d="M7.99694 5.90151L6.43414 5.12011C6.30893 5.05772 6.15991 5.06703 6.04344 5.14453L5.32602 5.62314C4.99669 5.44209 4.72567 5.17107 4.54462 4.84174L5.02323 4.12432C5.10073 4.00785 5.11005 3.85883 5.04765 3.73362L4.26625 2.17082C4.20018 2.03739 4.06401 1.95311 3.91511 1.9535C2.83622 1.9535 1.96161 2.82811 1.96161 3.90699C1.96431 6.27943 3.88687 8.20199 6.2593 8.20469C7.33822 8.20473 8.2128 7.33011 8.2128 6.25119C8.21291 6.10315 8.12933 5.96776 7.99694 5.90151ZM6.2593 7.42329C4.3182 7.42113 2.74516 5.8481 2.74301 3.90699C2.74286 3.34821 3.13717 2.86702 3.68509 2.75736L4.24574 3.88062L3.7686 4.59072C3.69618 4.69934 3.68281 4.83695 3.73294 4.95749C4.01248 5.62186 4.54102 6.15039 5.20539 6.42993C5.32633 6.48231 5.46552 6.47019 5.57558 6.3977L6.2891 5.92202L7.41235 6.48268C7.30183 7.03127 6.81892 7.42521 6.2593 7.42329ZM5.0872 1.29002e-07C1.2539 -0.000838024 -1.1987 4.08273 0.602955 7.46626L0.0486527 9.12918C-0.141644 9.6998 0.357137 10.2624 0.946464 10.1419C0.977144 10.1357 1.00742 10.1276 1.03712 10.1176L2.70003 9.56334C6.15201 11.3994 10.2971 8.81003 10.1611 4.90251C10.066 2.1686 7.82277 0.00112981 5.0872 1.29002e-07ZM5.0872 9.37678C4.33168 9.3773 3.58941 9.17834 2.93543 8.80001C2.83857 8.74384 2.72227 8.73193 2.61604 8.76729L0.789515 9.37678L1.39852 7.55026C1.43403 7.4441 1.42229 7.3278 1.36629 7.23086C-0.290151 4.36704 1.77475 0.784005 5.08312 0.781401C8.39148 0.778794 10.462 4.35858 8.8101 7.22501C8.04296 8.55615 6.62358 9.37652 5.0872 9.37678Z" fill="#404042"/>
</svg>
