<svg width="28" height="28" viewBox="0 0 28 28" fill="none" xmlns="http://www.w3.org/2000/svg">
<circle cx="14" cy="14" r="14" fill="#BE202E"/>
<g clip-path="url(#clip0_1_3)">
<path d="M21.9394 9.90643C21.8055 9.38292 21.4281 8.95571 20.925 8.75843C18.5254 7.83163 14.7063 7.84003 14.4963 7.84003C14.2863 7.84003 10.4671 7.83163 8.06745 8.75843C7.56441 8.95571 7.18696 9.38292 7.05315 9.90643C6.87185 10.605 6.65625 11.8818 6.65625 14C6.65625 16.1182 6.87185 17.395 7.05315 18.0936C7.18676 18.6174 7.56424 19.0449 8.06745 19.2423C10.3663 20.1292 13.9643 20.16 14.4501 20.16H14.5424C15.0282 20.16 18.6283 20.1292 20.925 19.2423C21.4283 19.0449 21.8057 18.6174 21.9394 18.0936C22.1207 17.3936 22.3363 16.1182 22.3363 14C22.3363 11.8818 22.1207 10.605 21.9394 9.90643ZM16.7775 14.4564L13.9776 16.4164C13.6245 16.6638 13.1361 16.4361 13.0984 16.0067C13.097 15.9912 13.0963 15.9756 13.0963 15.96V12.04C13.0964 11.6089 13.5631 11.3396 13.9364 11.5553C13.9505 11.5634 13.9642 11.5722 13.9776 11.5815L16.7775 13.5415C17.0955 13.7645 17.0955 14.2356 16.7775 14.4585V14.4564Z" fill="white"/>
</g>
<defs>
<clipPath id="clip0_1_3">
<rect width="16" height="16" fill="white" transform="translate(6.5 6)"/>
</clipPath>
</defs>
</svg>
